<svg width="134" height="130" viewBox="0 0 134 130" fill="none" xmlns="http://www.w3.org/2000/svg">
<circle cx="67" cy="65" r="65" fill="#F4F4F4"/>
<path d="M42.8243 34.5599C47.3922 32.2401 52.5608 30.9312 58.0343 30.9312C76.6018 30.9312 91.655 45.9843 91.655 64.5518C91.655 83.1194 76.6018 98.1725 58.0343 98.1725C39.4667 98.1725 24.4136 83.1194 24.4136 64.5518C24.4136 58.1594 26.1977 52.1817 29.2975 47.0937" stroke="#11265A" stroke-width="4" stroke-miterlimit="10"/>
<path d="M87.8981 80.0103L116.198 104.269C117.639 105.501 118.551 107.333 118.551 109.379C118.551 113.093 115.541 116.103 111.827 116.103C110.16 116.103 108.629 115.491 107.454 114.487L79.4414 90.4775" stroke="#11265A" stroke-width="4" stroke-miterlimit="10"/>
<path d="M77.102 54.4502L72.5879 58.9643" stroke="#11265A" stroke-width="4" stroke-miterlimit="10"/>
<path d="M68.1366 63.4155L51.3106 80.2416L38.9673 67.8983" stroke="#11265A" stroke-width="4" stroke-miterlimit="10"/>
<path d="M17.6897 78H6.48276C4.00603 78 2 75.994 2 73.5172V17.4828C2 15.006 4.00603 13 6.48276 13H127.517C129.994 13 132 15.006 132 17.4828V73.5172C132 75.994 129.994 78 127.517 78H98.3793" stroke="#11265A" stroke-width="4" stroke-miterlimit="10"/>
<path d="M123.035 24.207H78.207" stroke="#11265A" stroke-width="4" stroke-miterlimit="10"/>
<path d="M123.034 33.1724L100.621 33.1724" stroke="#11265A" stroke-width="4" stroke-miterlimit="10"/>
</svg>
