<svg width="134" height="132" viewBox="0 0 134 132" fill="none" xmlns="http://www.w3.org/2000/svg">
<circle cx="67" cy="66" r="65" fill="#F4F4F4"/>
<path d="M91.6553 69.2412C95.3689 69.2412 98.3794 66.2307 98.3794 62.5171C98.3794 58.8035 95.3689 55.793 91.6553 55.793C87.9417 55.793 84.9312 58.8035 84.9312 62.5171C84.9312 66.2307 87.9417 69.2412 91.6553 69.2412Z" stroke="#11265A" stroke-width="4" stroke-miterlimit="10"/>
<path d="M97.7336 95.9925L112.072 124.052C112.338 124.572 112.802 124.976 113.363 125.162L126.798 129.64C127.024 129.716 127.266 129.759 127.517 129.759C128.566 129.759 129.449 129.037 129.691 128.062L131.933 119.097C131.977 118.922 132 118.74 132 118.552C132 118.088 131.859 117.655 131.617 117.299L127.134 110.575C126.73 109.979 126.049 109.586 125.276 109.586H119.264L122.868 101.172C122.963 100.948 123.034 100.711 123.034 100.473C123.034 100.173 122.94 99.8813 122.797 99.6145L115.447 86.0385C118.785 81.6902 120.793 76.2661 120.793 70.3623C120.793 56.1273 109.252 44.5864 95.0171 44.5864C80.7821 44.5864 69.2412 56.1273 69.2412 70.3623C69.2412 84.5973 80.7821 96.1382 95.0171 96.1382C95.9338 96.1382 96.8393 96.0866 97.7336 95.9925V95.9925Z" stroke="#11265A" stroke-width="4" stroke-miterlimit="10"/>
<path d="M69.0576 92.0138L7.93966 84.8862C4.59552 84.4984 2 81.6564 2 78.2069V8.72414C2 5.01017 5.01017 2 8.72414 2C8.98862 2 9.25086 2.01569 9.50638 2.04483L105.886 13.2517C109.232 13.6395 111.828 16.4816 111.828 19.931V42.3448" stroke="#11265A" stroke-width="4" stroke-miterlimit="10"/>
<path d="M86.8295 121.149L17.9272 113.085" stroke="#11265A" stroke-width="4" stroke-miterlimit="10"/>
<path d="M62.246 73.7135L2 66.4761" stroke="#11265A" stroke-width="4" stroke-miterlimit="10"/>
<path d="M39.3036 88.5439L29.8584 114.481" stroke="#11265A" stroke-width="4" stroke-miterlimit="10"/>
<path d="M68.8628 98.957L75.0647 119.773" stroke="#11265A" stroke-width="4" stroke-miterlimit="10"/>
</svg>
