<svg width="134" height="142" viewBox="0 0 134 142" fill="none" xmlns="http://www.w3.org/2000/svg">
<circle cx="67" cy="71" r="65" fill="#F4F4F4"/>
<path d="M105.518 100.526C105.518 108.962 101.816 116.952 95.429 122.462C86.5746 130.104 74.0392 139.711 67 139.711C59.9607 139.711 47.4253 130.104 38.5709 122.462C32.184 116.952 28.4814 108.962 28.4814 100.526V71.3339C28.4814 68.9072 29.69 66.6491 31.7146 65.3129C39.3461 60.2766 58.485 48.23 67 48.23C75.515 48.23 94.6539 60.2766 102.285 65.3154C104.31 66.6515 105.518 68.9096 105.518 71.3339V100.526Z" stroke="black" stroke-width="4" stroke-miterlimit="10"/>
<path d="M89.8852 83.1221L85.0415 87.9658" stroke="black" stroke-width="4" stroke-miterlimit="10"/>
<path d="M46.5229 95.1589L62.1855 110.821L80.2555 92.7515" stroke="black" stroke-width="4" stroke-miterlimit="10"/>
<path d="M43.1763 31.2935C47.76 21.3942 57.782 14.5259 69.4074 14.5259C85.3613 14.5259 98.2963 27.4609 98.2963 43.4148C98.2963 43.7133 98.2915 44.0118 98.2818 44.3079" stroke="black" stroke-width="4" stroke-miterlimit="10"/>
<path d="M17.5975 53.389C16.8512 51.4101 16.4443 49.2651 16.4443 47.0263C16.4443 37.0548 24.5284 28.9707 34.4999 28.9707C42.0327 28.9707 48.3569 33.7831 51.0629 40.3385" stroke="black" stroke-width="4" stroke-miterlimit="10"/>
<path d="M116.388 32.9737C113.47 19.7956 105.155 8.68056 93.8789 2" stroke="black" stroke-width="4" stroke-miterlimit="10"/>
<path d="M106.991 35.0632C104.659 24.5211 98.0068 15.6282 88.9839 10.2861" stroke="black" stroke-width="4" stroke-miterlimit="10"/>
<path d="M28.4815 91.563H21.2593C10.6233 91.563 2 82.9396 2 72.3037C2 61.6678 10.6233 53.0444 21.2593 53.0444C23.633 53.0444 25.9657 53.2418 28.065 54.0267" stroke="black" stroke-width="4" stroke-miterlimit="10"/>
<path d="M89.6201 49.2458C93.4816 45.146 99.3509 43.415 105.519 43.415C120.144 43.415 132 54.193 132 67.4891C132 80.7852 120.144 91.5632 105.519 91.5632" stroke="black" stroke-width="4" stroke-miterlimit="10"/>
</svg>
