<svg width="130" height="130" viewBox="0 0 130 130" fill="none" xmlns="http://www.w3.org/2000/svg">
<circle cx="65" cy="65" r="65" fill="#F4F4F4"/>
<path d="M117 24.8333V14" stroke="#002366" stroke-width="4" stroke-miterlimit="10"/>
<path d="M127.303 21.9536L117 24.8331L106.698 21.9536" stroke="#002366" stroke-width="4" stroke-miterlimit="10"/>
<path d="M124.415 34.6853L117 24.8335L109.586 34.6853" stroke="#002366" stroke-width="4" stroke-miterlimit="10"/>
<path d="M82.3335 24.8333V14" stroke="#002366" stroke-width="4" stroke-miterlimit="10"/>
<path d="M92.6363 21.9536L82.3338 24.8331L72.0312 21.9536" stroke="#002366" stroke-width="4" stroke-miterlimit="10"/>
<path d="M89.7481 34.6853L82.3338 24.8335L74.9194 34.6853" stroke="#002366" stroke-width="4" stroke-miterlimit="10"/>
<path d="M47.6665 24.8333V14" stroke="#002366" stroke-width="4" stroke-miterlimit="10"/>
<path d="M57.9693 21.9536L47.6668 24.8331L37.3643 21.9536" stroke="#002366" stroke-width="4" stroke-miterlimit="10"/>
<path d="M55.0811 34.6853L47.6668 24.8335L40.2524 34.6853" stroke="#002366" stroke-width="4" stroke-miterlimit="10"/>
<path d="M13 24.8333V14" stroke="#002366" stroke-width="4" stroke-miterlimit="10"/>
<path d="M23.3028 21.9536L13.0003 24.8331L2.69775 21.9536" stroke="#002366" stroke-width="4" stroke-miterlimit="10"/>
<path d="M20.4146 34.6853L13.0003 24.8335L5.58594 34.6853" stroke="#002366" stroke-width="4" stroke-miterlimit="10"/>
<path d="M0 59.5H21.6667" stroke="#002366" stroke-width="4" stroke-miterlimit="10"/>
<path d="M106.167 59.5H125.667" stroke="#002366" stroke-width="4" stroke-miterlimit="10"/>
<path d="M99.6665 72.5H130" stroke="#002366" stroke-width="4" stroke-miterlimit="10"/>
<path d="M19.5 94.1665H52" stroke="#002366" stroke-width="4" stroke-miterlimit="10"/>
<path d="M36.8335 102.833H60.6668" stroke="#002366" stroke-width="4" stroke-miterlimit="10"/>
<path d="M62.8332 83.3333H30.3332C29.1372 83.3333 28.1665 82.3627 28.1665 81.1667V55.1667C28.1665 53.9707 29.1372 53 30.3332 53H86.6665C87.8625 53 88.8332 53.9707 88.8332 55.1667V74.6667" stroke="#002366" stroke-width="4" stroke-miterlimit="10"/>
<path d="M71.953 68.6188L99.214 95.8799C100.18 96.8462 99.4957 98.4994 98.1307 98.4994H82.3335L71.953 108.88C70.9867 109.846 69.3335 109.162 69.3335 107.797V69.7022C69.3335 68.3372 70.9867 67.6525 71.953 68.6188V68.6188Z" stroke="#002366" stroke-width="4" stroke-miterlimit="10"/>
<path d="M82.3335 98.5L89.737 115.513" stroke="#002366" stroke-width="4" stroke-miterlimit="10"/>
</svg>
