<svg width="360" height="422" viewBox="0 0 360 422" fill="none" xmlns="http://www.w3.org/2000/svg">
<path d="M179.773 389.253C278.212 389.253 358.012 309.453 358.012 211.014C358.012 112.576 278.212 32.7756 179.773 32.7756C81.335 32.7756 1.53491 112.576 1.53491 211.014C1.53491 309.453 81.335 389.253 179.773 389.253Z" fill="white"/>
<path d="M151.756 184.687V282.985C151.756 294.952 150.039 306.835 146.688 318.295L144.041 327.334H55.3725L51.712 314.916C49.0089 305.765 44.391 297.289 38.1118 290.081L4.3507 251.195C0.1552 246.352 0.690197 239.031 5.53333 234.836L7.67332 232.977C12.5164 228.782 19.8375 229.317 24.033 234.188L41.4063 254.293C43.5463 256.771 47.6291 255.25 47.6291 251.984V163.991C47.6291 157.599 52.8102 152.39 59.2301 152.39H62.0741C68.4659 152.39 73.675 157.599 73.675 163.991V145.238C73.675 138.818 78.8561 133.637 85.276 133.637H88.12C94.5118 133.637 99.721 138.818 99.721 145.238V163.991C99.721 157.599 104.902 152.39 111.322 152.39H114.166C120.586 152.39 125.767 157.599 125.767 163.991V184.659C125.767 178.239 130.976 173.058 137.368 173.058H140.212C146.575 173.086 151.756 178.267 151.756 184.687Z" fill="white"/>
<path d="M144.041 328.882H55.3724C54.6966 328.882 54.0772 328.432 53.8801 327.756L50.2196 315.339C47.5727 306.328 43.0956 298.162 36.9573 291.067L3.19613 252.209C0.887197 249.534 -0.239113 246.155 0.0424646 242.663C0.295884 239.172 1.90088 235.962 4.5477 233.681L6.68769 231.823C12.1785 227.092 20.485 227.684 25.2436 233.174L42.617 253.279C43.4617 254.236 44.5035 253.955 44.8133 253.842C45.123 253.729 46.1085 253.251 46.1085 251.984V163.991C46.1085 156.754 51.9935 150.841 59.2582 150.841H62.1021C66.1287 150.841 69.7329 152.671 72.1544 155.515V145.238C72.1544 138.001 78.0394 132.088 85.3041 132.088H88.148C95.3846 132.088 101.298 137.973 101.298 145.238V155.515C103.719 152.643 107.323 150.841 111.35 150.841H114.194C121.43 150.841 127.344 156.726 127.344 163.991V176.183C129.765 173.311 133.369 171.509 137.396 171.509H140.24C147.476 171.509 153.39 177.394 153.39 184.659V282.985C153.39 295.093 151.672 307.117 148.237 318.746L145.59 327.784C145.308 328.432 144.717 328.882 144.041 328.882ZM56.5269 325.785H142.859L145.196 317.873C148.518 306.553 150.208 294.812 150.208 282.985V184.687C150.208 179.14 145.702 174.634 140.155 174.634H137.311C131.764 174.634 127.259 179.14 127.259 184.687C127.259 185.531 126.555 186.235 125.71 186.235C124.866 186.235 124.162 185.531 124.162 184.687V164.019C124.162 158.472 119.657 153.967 114.109 153.967H111.266C105.718 153.967 101.213 158.472 101.213 164.019C101.213 164.864 100.509 165.568 99.6646 165.568C98.8198 165.568 98.1159 164.864 98.1159 164.019V145.266C98.1159 139.719 93.6106 135.214 88.0636 135.214H85.2196C79.6726 135.214 75.1673 139.719 75.1673 145.266V164.019C75.1673 164.864 74.4634 165.568 73.6186 165.568C72.7739 165.568 72.07 164.864 72.07 164.019C72.07 158.472 67.5647 153.967 62.0177 153.967H59.1737C53.6266 153.967 49.1214 158.472 49.1214 164.019V251.984C49.1214 254.124 47.8261 256.01 45.7988 256.742C43.7996 257.503 41.5751 256.911 40.1672 255.306L22.7939 235.202C19.1616 231.006 12.8261 230.527 8.63058 234.16L6.49059 236.018C4.46323 237.764 3.22429 240.214 3.02719 242.889C2.83008 245.564 3.70297 248.154 5.44875 250.182L39.2099 289.039C45.658 296.473 50.3322 305.033 53.1198 314.466L56.5269 325.785Z" fill="#202020"/>
<path d="M160.767 327.334H38.6187V344.2H160.767V327.334Z" fill="white"/>
<path d="M160.767 345.749H38.6187C37.774 345.749 37.0701 345.045 37.0701 344.2V327.334C37.0701 326.489 37.774 325.785 38.6187 325.785H160.767C161.612 325.785 162.316 326.489 162.316 327.334V344.2C162.316 345.045 161.612 345.749 160.767 345.749ZM40.1674 342.652H159.218V328.883H40.1674V342.652Z" fill="#202020"/>
<path d="M166.821 344.2H32.5928V420.479H166.821V344.2Z" fill="#0042BD"/>
<path d="M168.369 422H31.0442V342.623H168.369V422ZM34.1415 418.903H165.272V345.721H34.1415V418.903Z" fill="#0042BD"/>
<path d="M125.739 250.576C124.894 250.576 124.19 249.872 124.19 249.027V184.687C124.19 183.842 124.894 183.138 125.739 183.138C126.583 183.138 127.287 183.842 127.287 184.687V249.027C127.287 249.872 126.583 250.576 125.739 250.576Z" fill="#202020"/>
<path d="M99.6927 237.032C98.848 237.032 98.144 236.328 98.144 235.483V164.019C98.144 163.174 98.848 162.47 99.6927 162.47C100.537 162.47 101.241 163.174 101.241 164.019V235.483C101.241 236.328 100.566 237.032 99.6927 237.032Z" fill="#202020"/>
<path d="M76.6595 243.733C75.8429 243.733 75.139 243.086 75.1108 242.241L72.1261 164.047C72.0979 163.202 72.7737 162.47 73.6184 162.442C74.4632 162.414 75.1953 163.09 75.2234 163.934L78.2082 242.128C78.2363 242.973 77.5605 243.705 76.7158 243.733C76.6876 243.733 76.6595 243.733 76.6595 243.733Z" fill="#202020"/>
<path d="M122.219 303.09H220.518C232.485 303.09 244.367 301.372 255.827 298.022L264.866 295.375V206.706L252.448 203.046C243.297 200.342 234.822 195.724 227.613 189.445L188.727 155.684C183.884 151.489 176.563 152.024 172.368 156.867L170.509 159.007C166.314 163.85 166.849 171.171 171.72 175.366L191.825 192.74C194.303 194.88 192.782 198.963 189.516 198.963H101.551C95.1593 198.963 89.9501 204.144 89.9501 210.564V213.408C89.9501 219.799 95.1593 225.009 101.551 225.009H82.798C76.378 225.009 71.197 230.19 71.197 236.61V239.453C71.197 245.845 76.378 251.054 82.798 251.054H101.551C95.1593 251.054 89.9501 256.235 89.9501 262.655V265.499C89.9501 271.919 95.1593 277.1 101.551 277.1H122.219C115.799 277.1 110.618 282.31 110.618 288.701V291.545C110.618 297.881 115.827 303.09 122.219 303.09Z" fill="white"/>
<path d="M220.518 304.639H122.219C114.982 304.639 109.069 298.754 109.069 291.489V288.645C109.069 284.618 110.9 281.014 113.743 278.593H101.551C94.3146 278.593 88.4015 272.708 88.4015 265.443V262.599C88.4015 258.572 90.2317 254.968 93.0757 252.547H82.7981C75.5616 252.547 69.6484 246.662 69.6484 239.397V236.553C69.6484 229.317 75.5334 223.403 82.7981 223.403H93.0757C90.2036 220.982 88.4015 217.378 88.4015 213.351V210.507C88.4015 203.271 94.2865 197.358 101.551 197.358H189.516C190.811 197.358 191.262 196.372 191.374 196.062C191.487 195.753 191.769 194.711 190.811 193.866L170.707 176.549C165.216 171.819 164.596 163.484 169.355 157.993L171.213 155.853C173.522 153.206 176.704 151.601 180.196 151.348C183.687 151.094 187.094 152.221 189.741 154.502L228.627 188.291C235.723 194.457 243.889 198.906 252.899 201.553L265.317 205.214C265.964 205.411 266.415 206.002 266.415 206.706V295.375C266.415 296.05 265.964 296.67 265.317 296.867L256.278 299.514C244.677 302.893 232.654 304.639 220.518 304.639ZM122.219 278.593C116.672 278.593 112.167 283.098 112.167 288.645V291.489C112.167 297.036 116.672 301.541 122.219 301.541H220.518C232.344 301.541 244.057 299.852 255.405 296.529L263.317 294.192V207.86L251.998 204.538C242.565 201.778 234.005 197.076 226.572 190.628L187.714 156.839C185.686 155.093 183.096 154.22 180.421 154.417C177.746 154.614 175.296 155.825 173.55 157.88L171.692 160.02C168.06 164.216 168.538 170.58 172.734 174.184L192.839 191.557C194.472 192.965 195.035 195.161 194.275 197.189C193.514 199.188 191.656 200.511 189.516 200.511H101.551C96.0041 200.511 91.4988 205.016 91.4988 210.564V213.407C91.4988 218.955 96.0041 223.46 101.551 223.46C102.396 223.46 103.1 224.164 103.1 225.008C103.1 225.853 102.396 226.557 101.551 226.557H82.7981C77.251 226.557 72.7458 231.062 72.7458 236.609V239.453C72.7458 245 77.251 249.506 82.7981 249.506H101.551C102.396 249.506 103.1 250.21 103.1 251.054C103.1 251.899 102.396 252.603 101.551 252.603C96.0041 252.603 91.4988 257.108 91.4988 262.655V265.499C91.4988 271.046 96.0041 275.552 101.551 275.552H122.219C123.064 275.552 123.768 276.256 123.768 277.1C123.768 277.945 123.092 278.593 122.219 278.593Z" fill="#202020"/>
<path d="M281.759 312.096L281.759 189.947L264.893 189.947L264.893 312.096L281.759 312.096Z" fill="white"/>
<path d="M281.733 313.649H264.866C264.021 313.649 263.317 312.945 263.317 312.1V189.952C263.317 189.107 264.021 188.403 264.866 188.403H281.733C282.577 188.403 283.281 189.107 283.281 189.952V312.1C283.281 312.945 282.605 313.649 281.733 313.649ZM266.443 310.552H280.212V191.501H266.443V310.552Z" fill="#202020"/>
<path d="M358.002 318.13L358.002 183.902L281.723 183.902L281.723 318.13L358.002 318.13Z" fill="white"/>
<path d="M358.012 319.675H281.732C280.888 319.675 280.184 318.971 280.184 318.126V183.898C280.184 183.054 280.888 182.35 281.732 182.35H358.012C358.856 182.35 359.56 183.054 359.56 183.898V318.126C359.56 318.999 358.856 319.675 358.012 319.675ZM283.281 316.578H356.463V185.447H283.281V316.578Z" fill="#0042BD"/>
<path d="M186.588 278.593H122.219C121.374 278.593 120.67 277.889 120.67 277.044C120.67 276.199 121.374 275.495 122.219 275.495H186.56C187.404 275.495 188.108 276.199 188.108 277.044C188.108 277.889 187.432 278.593 186.588 278.593Z" fill="#202020"/>
<path d="M101.551 252.575C100.707 252.575 100.003 251.871 100.003 251.026C100.003 250.181 100.707 249.477 101.551 249.477H173.016C173.86 249.477 174.564 250.181 174.564 251.026C174.564 251.871 173.86 252.575 173.016 252.575H101.551Z" fill="#202020"/>
<path d="M179.745 229.514C179.717 229.514 179.717 229.514 179.689 229.514L101.495 226.529C100.65 226.501 99.9742 225.769 100.002 224.924C100.03 224.079 100.763 223.403 101.607 223.432L179.801 226.416C180.646 226.445 181.322 227.177 181.294 228.021C181.237 228.866 180.562 229.514 179.745 229.514Z" fill="#202020"/>
<path d="M212.493 237.342V139.043C212.493 127.076 210.775 115.193 207.424 103.733L204.778 94.6945H116.109L112.448 107.112C109.745 116.263 105.127 124.739 98.8482 131.947L65.087 170.833C60.8915 175.676 61.4265 182.997 66.2697 187.193L68.4096 189.051C73.2528 193.247 80.5738 192.712 84.7693 187.84L102.143 167.736C104.283 165.258 108.365 166.778 108.365 170.045V258.009C108.365 264.401 113.546 269.61 119.966 269.61H122.81C129.202 269.61 134.411 264.401 134.411 258.009V276.762C134.411 283.182 139.592 288.363 146.012 288.363H148.856C155.248 288.363 160.457 283.182 160.457 276.762V258.009C160.457 264.401 165.638 269.61 172.058 269.61H174.902C181.322 269.61 186.503 264.401 186.503 258.009V237.342C186.503 243.762 191.712 248.943 198.104 248.943H200.948C207.312 248.943 212.493 243.733 212.493 237.342Z" fill="white"/>
<path d="M148.856 289.912H146.012C138.776 289.912 132.863 284.027 132.863 276.762V266.485C130.441 269.357 126.837 271.159 122.81 271.159H119.966C112.73 271.159 106.817 265.274 106.817 258.009V170.045C106.817 168.749 105.831 168.299 105.521 168.186C105.212 168.074 104.17 167.792 103.325 168.749L85.9518 188.854C83.6428 191.501 80.461 193.106 76.9694 193.387C73.4779 193.641 70.0708 192.514 67.424 190.234L65.284 188.375C62.6371 186.066 61.0322 182.884 60.7787 179.393C60.5253 175.901 61.6516 172.494 63.9324 169.847L97.6935 130.933C103.86 123.838 108.309 115.672 110.956 106.661L114.616 94.2439C114.813 93.5963 115.405 93.1176 116.109 93.1176H204.777C205.453 93.1176 206.073 93.5681 206.27 94.2439L208.917 103.283C212.324 114.912 214.069 126.935 214.069 139.043V237.342C214.069 244.578 208.184 250.491 200.92 250.491H198.076C194.049 250.491 190.445 248.661 188.024 245.817V258.009C188.024 265.246 182.139 271.159 174.874 271.159H172.03C168.003 271.159 164.399 269.329 161.978 266.485V276.762C161.978 284.027 156.093 289.912 148.856 289.912ZM135.96 258.009V276.762C135.96 282.309 140.465 286.815 146.012 286.815H148.856C154.403 286.815 158.908 282.309 158.908 276.762V258.009C158.908 257.165 159.612 256.461 160.457 256.461C161.302 256.461 162.006 257.165 162.006 258.009C162.006 263.556 166.511 268.062 172.058 268.062H174.902C180.449 268.062 184.954 263.556 184.954 258.009V237.342C184.954 236.497 185.658 235.793 186.503 235.793C187.348 235.793 188.052 236.497 188.052 237.342C188.052 242.889 192.557 247.394 198.104 247.394H200.948C206.495 247.394 211 242.889 211 237.342V139.043C211 127.217 209.311 115.503 205.988 104.155L203.651 96.2431H117.263L113.941 107.563C111.181 116.995 106.479 125.555 100.031 132.989L66.2695 171.847C64.5237 173.874 63.6508 176.465 63.8479 179.14C64.045 181.814 65.2558 184.264 67.3113 186.01L69.4513 187.868C71.4787 189.614 74.0692 190.487 76.7442 190.29C79.4192 190.093 81.8689 188.854 83.6147 186.827L100.988 166.722C102.396 165.089 104.592 164.526 106.62 165.286C108.619 166.046 109.942 167.905 109.942 170.045V258.009C109.942 263.556 114.447 268.062 119.994 268.062H122.838C128.385 268.062 132.891 263.556 132.891 258.009C132.891 257.165 133.595 256.461 134.439 256.461C135.284 256.461 135.96 257.165 135.96 258.009Z" fill="#0042BD"/>
<path d="M186.475 238.89C185.63 238.89 184.926 238.186 184.926 237.342V172.973C184.926 172.128 185.63 171.424 186.475 171.424C187.319 171.424 188.023 172.128 188.023 172.973V237.313C188.023 238.186 187.319 238.89 186.475 238.89Z" fill="#0042BD"/>
<path d="M160.429 259.558C159.584 259.558 158.88 258.854 158.88 258.009V186.545C158.88 185.7 159.584 184.996 160.429 184.996C161.274 184.996 161.978 185.7 161.978 186.545V258.009C161.978 258.854 161.302 259.558 160.429 259.558Z" fill="#0042BD"/>
<path d="M134.299 263.444C133.454 263.444 132.75 262.74 132.75 261.895V190.431C132.75 189.586 133.454 188.882 134.299 188.882C135.143 188.882 135.847 189.586 135.847 190.431V261.895C135.847 262.768 135.172 263.444 134.299 263.444Z" fill="#0042BD"/>
<path d="M221.531 77.8279H99.3828V94.6944H221.531V77.8279Z" fill="white"/>
<path d="M221.503 96.2149H99.3829C98.5382 96.2149 97.8342 95.511 97.8342 94.6663V77.7998C97.8342 76.955 98.5382 76.2511 99.3829 76.2511H221.531C222.376 76.2511 223.08 76.955 223.08 77.7998V94.6663C223.052 95.5392 222.376 96.2149 221.503 96.2149ZM100.932 93.1176H219.982V79.3484H100.932V93.1176Z" fill="#202020"/>
<path d="M227.557 1.54871H93.3291V77.828H227.557V1.54871Z" fill="white"/>
<path d="M229.106 79.3767H91.7805V0H229.106V79.3767ZM94.8779 76.2793H226.008V3.09735H94.8779V76.2793Z" fill="#0042BD"/>
</svg>
