<svg width="370" height="318" viewBox="0 0 370 318" fill="none" xmlns="http://www.w3.org/2000/svg">
<path d="M184.851 316.187C271.663 316.187 342.039 245.812 342.039 159C342.039 72.1875 271.663 1.81226 184.851 1.81226C98.0389 1.81226 27.6636 72.1875 27.6636 159C27.6636 245.812 98.0389 316.187 184.851 316.187Z" fill="white"/>
<path d="M208.578 173.499H1.82812V316.22H208.578V173.499Z" fill="#0042BD"/>
<path d="M208.578 318H1.82806C0.839459 318 0.015625 317.176 0.015625 316.187V173.499C0.015625 172.511 0.839459 171.687 1.82806 171.687H208.578C209.566 171.687 210.39 172.511 210.39 173.499V316.187C210.39 317.176 209.566 318 208.578 318ZM3.6405 314.375H206.765V175.312H3.6405V314.375Z" fill="#202020"/>
<path d="M105.203 84.0308L1.82812 173.499H208.578L105.203 84.0308Z" fill="#0042BD"/>
<path d="M208.578 175.312H1.82814C1.07022 175.312 0.378196 174.85 0.114569 174.125C-0.149058 173.4 0.0486625 172.609 0.641823 172.115L104.017 82.6797C104.709 82.0866 105.697 82.0866 106.389 82.6797L209.764 172.115C210.324 172.609 210.555 173.4 210.291 174.125C209.995 174.817 209.335 175.312 208.578 175.312ZM6.70524 171.687H203.7L105.203 86.4364L6.70524 171.687Z" fill="#202020"/>
<path d="M187.751 113.656H26.6091V265.703H187.751V113.656Z" fill="white"/>
<path d="M187.751 267.515H26.6091C25.6205 267.515 24.7966 266.691 24.7966 265.703V113.656C24.7966 112.667 25.6205 111.844 26.6091 111.844H187.751C188.74 111.844 189.563 112.667 189.563 113.656V265.703C189.563 266.691 188.74 267.515 187.751 267.515ZM28.4215 263.89H185.939V115.468H28.4215V263.89Z" fill="#202020"/>
<path d="M208.578 244.844H1.82812V316.188H208.578V244.844Z" fill="white"/>
<path d="M208.578 318H1.82806C0.839459 318 0.015625 317.176 0.015625 316.188V244.844C0.015625 243.855 0.839459 243.031 1.82806 243.031H208.578C209.566 243.031 210.39 243.855 210.39 244.844V316.188C210.39 317.176 209.566 318 208.578 318ZM3.6405 314.375H206.765V246.656H3.6405V314.375Z" fill="#202020"/>
<path d="M82.5639 244.843L1.82812 316.187V173.499L82.5639 244.843Z" fill="white"/>
<path d="M1.82806 318C1.56443 318 1.33376 317.934 1.07013 317.835C0.411065 317.538 0.015625 316.879 0.015625 316.187V173.499C0.015625 172.774 0.444019 172.148 1.07013 171.851C1.7292 171.555 2.48713 171.687 3.01438 172.148L83.7501 243.492C84.1456 243.822 84.3762 244.316 84.3762 244.843C84.3762 245.37 84.1456 245.865 83.7501 246.194L3.01438 317.538C2.68485 317.835 2.25645 318 1.82806 318ZM3.6405 177.519V312.167L79.8287 244.843L3.6405 177.519Z" fill="#202020"/>
<path d="M127.809 244.843L208.578 316.187V173.499L127.809 244.843Z" fill="white"/>
<path d="M208.577 318C208.149 318 207.721 317.835 207.391 317.538L126.655 246.194C126.26 245.865 126.029 245.37 126.029 244.843C126.029 244.316 126.26 243.822 126.655 243.492L207.391 172.148C207.918 171.687 208.676 171.555 209.335 171.851C209.994 172.148 210.39 172.807 210.39 173.499V316.187C210.39 316.912 209.962 317.538 209.335 317.835C209.072 317.934 208.808 318 208.577 318ZM130.577 244.843L206.765 312.167V177.519L130.577 244.843Z" fill="#202020"/>
<path d="M367.907 109.471V155.737C367.907 167.238 358.581 176.531 347.081 176.531H335.086V210.671L299.957 176.531H238.335C226.834 176.531 217.541 167.205 217.541 155.737V109.471C217.541 97.9701 226.867 88.6443 238.335 88.6443H347.081C358.581 88.6443 367.907 97.9371 367.907 109.471Z" fill="#0042BD"/>
<path d="M336.898 214.954L299.232 178.343H238.335C225.878 178.343 215.729 168.194 215.729 155.737V109.471C215.729 96.9814 225.878 86.8318 238.335 86.8318H347.081C359.57 86.8318 369.72 96.9814 369.72 109.471V155.737C369.72 168.194 359.57 178.343 347.081 178.343H336.898V214.954ZM238.335 90.4567C227.855 90.4567 219.353 98.9916 219.353 109.471V155.737C219.353 166.216 227.855 174.718 238.335 174.718H300.715L333.273 206.387V174.718H347.081C357.56 174.718 366.095 166.216 366.095 155.737V109.471C366.095 98.9916 357.56 90.4567 347.081 90.4567H238.335Z" fill="#202020"/>
<path d="M136.607 27.0545V83.1082C136.607 97.0145 147.877 108.318 161.85 108.318H176.382V149.674L218.925 108.318H293.597C307.504 108.318 318.807 97.0475 318.807 83.1082V27.0545C318.807 13.1153 307.537 1.81226 293.597 1.81226H161.85C147.877 1.81226 136.607 13.0823 136.607 27.0545Z" fill="white"/>
<path d="M176.382 151.453C176.151 151.453 175.921 151.42 175.69 151.322C175.031 151.025 174.57 150.366 174.57 149.641V110.097H161.85C146.955 110.097 134.795 97.9701 134.795 83.0752V27.0545C134.795 12.1266 146.922 -0.000244141 161.85 -0.000244141H293.597C308.492 -0.000244141 320.619 12.1266 320.619 27.0545V83.1081C320.619 98.0031 308.492 110.13 293.597 110.13H219.65L177.634 150.959C177.305 151.289 176.843 151.453 176.382 151.453ZM161.85 3.62463C148.932 3.62463 138.42 14.1367 138.42 27.0545V83.1081C138.42 95.9929 148.932 106.505 161.85 106.505H176.382C177.371 106.505 178.195 107.329 178.195 108.317V145.39L217.673 107.032C218.002 106.703 218.464 106.505 218.925 106.505H293.597C306.482 106.505 316.994 96.0259 316.994 83.1081V27.0545C316.994 14.1367 306.515 3.62463 293.597 3.62463H161.85Z" fill="#202020"/>
<path d="M227.69 89.1057C207.984 89.1057 191.936 73.0574 191.936 53.3513C191.936 33.6452 207.984 17.6299 227.69 17.6299C247.397 17.6299 263.445 33.6782 263.445 53.3843C263.445 73.0904 247.43 89.1057 227.69 89.1057ZM227.69 21.2548C209.962 21.2548 195.561 35.6554 195.561 53.3843C195.561 71.1132 209.962 85.5138 227.69 85.5138C245.419 85.5138 259.82 71.1132 259.82 53.3843C259.82 35.6554 245.419 21.2548 227.69 21.2548Z" fill="#0042BD"/>
<path d="M226.01 59.1839L225.911 57.8658C225.615 55.1307 226.537 52.1319 229.075 49.0673C231.348 46.3651 232.634 44.3879 232.634 42.0811C232.634 39.4778 231.019 37.7643 227.789 37.6984C225.944 37.6984 223.934 38.3245 222.649 39.2801L221.429 36.0836C223.11 34.8644 226.01 34.0405 228.712 34.0405C234.578 34.0405 237.214 37.6654 237.214 41.5209C237.214 44.981 235.27 47.4855 232.831 50.3854C230.59 53.0217 229.767 55.2625 229.931 57.8658L229.997 59.1839H226.01ZM224.89 66.3019C224.89 64.4235 226.175 63.1054 227.954 63.1054C229.734 63.1054 230.953 64.4235 230.953 66.3019C230.953 68.0814 229.767 69.4654 227.888 69.4654C226.142 69.4324 224.89 68.0814 224.89 66.3019Z" fill="#0042BD"/>
<path d="M148.075 145.753H51.6208C50.6322 145.753 49.8083 144.929 49.8083 143.94C49.8083 142.952 50.6322 142.128 51.6208 142.128H148.108C149.097 142.128 149.921 142.952 149.921 143.94C149.921 144.929 149.097 145.753 148.075 145.753Z" fill="#202020"/>
<path d="M148.075 175.279H51.6208C50.6322 175.279 49.8083 174.455 49.8083 173.466C49.8083 172.478 50.6322 171.654 51.6208 171.654H148.108C149.097 171.654 149.921 172.478 149.921 173.466C149.921 174.455 149.097 175.279 148.075 175.279Z" fill="#202020"/>
<path d="M126.524 204.805H63.8464C62.8578 204.805 62.0339 203.981 62.0339 202.992C62.0339 202.004 62.8578 201.18 63.8464 201.18H126.524C127.512 201.18 128.336 202.004 128.336 202.992C128.336 203.981 127.545 204.805 126.524 204.805Z" fill="#202020"/>
</svg>
