<svg width="456" height="330" viewBox="0 0 456 330" fill="none" xmlns="http://www.w3.org/2000/svg">
<path d="M227.882 327.699C317.982 327.699 391.022 254.658 391.022 164.558C391.022 74.4582 317.982 1.4176 227.882 1.4176C137.782 1.4176 64.741 74.4582 64.741 164.558C64.741 254.658 137.782 327.699 227.882 327.699Z" fill="white"/>
<path d="M454.346 182.599H274.556V327.699H454.346V182.599Z" fill="white"/>
<path d="M454.346 329.116H274.556C273.783 329.116 273.138 328.472 273.138 327.699V182.599C273.138 181.826 273.783 181.181 274.556 181.181H454.346C455.119 181.181 455.763 181.826 455.763 182.599V327.699C455.763 328.472 455.119 329.116 454.346 329.116ZM275.973 326.281H452.928V184.016H275.973V326.281Z" fill="#0042BD"/>
<path d="M401.151 1.41748H259.066V224.093H401.151V1.41748Z" fill="white"/>
<path d="M401.125 225.51H259.041C258.267 225.51 257.623 224.866 257.623 224.093V1.41749C257.623 0.644315 258.267 0 259.041 0H401.125C401.898 0 402.542 0.644315 402.542 1.41749V224.093C402.542 224.866 401.924 225.51 401.125 225.51ZM260.484 222.675H399.733V2.83499H260.484V222.675Z" fill="#202020"/>
<path d="M354.992 32.9116H283.267C282.494 32.9116 281.85 32.2673 281.85 31.4942C281.85 30.721 282.494 30.0767 283.267 30.0767H354.992C355.765 30.0767 356.41 30.721 356.41 31.4942C356.41 32.2673 355.765 32.9116 354.992 32.9116Z" fill="#202020"/>
<path d="M354.992 54.8699H283.267C282.494 54.8699 281.85 54.2256 281.85 53.4524C281.85 52.6792 282.494 52.0349 283.267 52.0349H354.992C355.765 52.0349 356.41 52.6792 356.41 53.4524C356.41 54.2256 355.765 54.8699 354.992 54.8699Z" fill="#202020"/>
<path d="M354.992 114.173H283.267C282.494 114.173 281.85 113.528 281.85 112.755C281.85 111.982 282.494 111.338 283.267 111.338H354.992C355.765 111.338 356.41 111.982 356.41 112.755C356.41 113.528 355.765 114.173 354.992 114.173Z" fill="#202020"/>
<path d="M354.992 136.131H283.267C282.494 136.131 281.85 135.487 281.85 134.713C281.85 133.94 282.494 133.296 283.267 133.296H354.992C355.765 133.296 356.41 133.94 356.41 134.713C356.41 135.487 355.765 136.131 354.992 136.131Z" fill="#202020"/>
<path d="M372.93 160.976H283.267C282.494 160.976 281.85 160.332 281.85 159.558C281.85 158.785 282.494 158.141 283.267 158.141H372.93C373.703 158.141 374.348 158.785 374.348 159.558C374.348 160.332 373.703 160.976 372.93 160.976Z" fill="#202020"/>
<path d="M354.992 182.934H283.267C282.494 182.934 281.85 182.29 281.85 181.517C281.85 180.743 282.494 180.099 283.267 180.099H354.992C355.765 180.099 356.41 180.743 356.41 181.517C356.41 182.29 355.765 182.934 354.992 182.934Z" fill="#202020"/>
<path d="M322.622 42.4733H50.7725V267.004H322.622V42.4733Z" fill="white"/>
<path d="M322.622 268.422H50.7722C49.9991 268.422 49.3547 267.777 49.3547 267.004V42.4733C49.3547 41.7001 49.9991 41.0558 50.7722 41.0558H322.622C323.395 41.0558 324.039 41.7001 324.039 42.4733V267.004C324.039 267.803 323.421 268.422 322.622 268.422ZM52.1897 265.587H321.204V43.8908H52.1897V265.587Z" fill="#202020"/>
<path d="M322.622 90.8227H50.7722C49.9991 90.8227 49.3547 90.1784 49.3547 89.4052V42.4733C49.3547 41.7001 49.9991 41.0558 50.7722 41.0558H322.622C323.395 41.0558 324.039 41.7001 324.039 42.4733V89.4052C324.039 90.1784 323.421 90.8227 322.622 90.8227ZM52.1897 87.9877H321.204V43.8908H52.1897V87.9877Z" fill="#202020"/>
<path d="M97.7044 42.4733H50.7725V89.4052H97.7044V42.4733Z" fill="#0042BD"/>
<path d="M99.1216 90.8227H49.3547V41.0558H99.1216V90.8227ZM52.1897 87.9877H96.2867V43.8908H52.1897V87.9877Z" fill="#202020"/>
<path d="M183.836 67.3439H117.163C116.389 67.3439 115.745 66.6996 115.745 65.9264C115.745 65.1532 116.389 64.5089 117.163 64.5089H183.836C184.61 64.5089 185.254 65.1532 185.254 65.9264C185.254 66.6996 184.635 67.3439 183.836 67.3439Z" fill="#0042BD"/>
<path d="M297.236 67.3439H201.954C201.181 67.3439 200.537 66.6996 200.537 65.9264C200.537 65.1532 201.181 64.5089 201.954 64.5089H297.261C298.035 64.5089 298.679 65.1532 298.679 65.9264C298.679 66.6996 298.035 67.3439 297.236 67.3439Z" fill="#0042BD"/>
<path d="M113.219 233.835V268.216C113.219 276.746 106.286 283.679 97.7297 283.679H88.8124V309.065L62.7048 283.679H16.881C8.35031 283.679 1.41748 276.746 1.41748 268.216V233.835C1.41748 225.278 8.35031 218.346 16.881 218.346H97.7297C106.286 218.346 113.219 225.278 113.219 233.835Z" fill="#0042BD"/>
<path d="M90.2299 312.416L62.1378 285.097H16.8811C7.57715 285.097 0 277.519 0 268.216V233.835C0 224.505 7.57715 216.928 16.8811 216.928H97.7298C107.059 216.928 114.637 224.505 114.637 233.835V268.216C114.637 277.519 107.059 285.097 97.7298 285.097H90.2299V312.416ZM16.8811 219.763C9.1235 219.763 2.83499 226.077 2.83499 233.835V268.216C2.83499 275.947 9.1235 282.262 16.8811 282.262H63.2718L87.3949 305.715V282.262H97.7298C105.487 282.262 111.802 275.973 111.802 268.216V233.835C111.802 226.077 105.487 219.763 97.7298 219.763H16.8811Z" fill="#202020"/>
<path d="M401.125 42.4733C401.125 42.4733 437.799 50.772 437.799 64.2253C437.799 88.4516 412.284 132.213 401.125 130.641C389.965 132.213 364.45 88.4258 364.45 64.2253C364.45 50.772 401.125 42.4733 401.125 42.4733Z" fill="#0042BD"/>
<path d="M401.718 132.11C401.512 132.11 401.331 132.11 401.125 132.085C398.728 132.342 395.868 131.028 392.646 128.245C379.708 116.982 363.033 83.9414 363.033 64.2512C363.033 58.04 369.502 52.2411 382.26 47.0093C391.435 43.2465 400.455 41.1847 400.816 41.1073L401.125 41.03L401.434 41.1073C401.821 41.1847 410.816 43.2465 419.991 47.0093C432.748 52.2411 439.217 58.04 439.217 64.2512C439.217 83.9414 422.516 117.008 409.604 128.245C406.64 130.822 404.012 132.11 401.718 132.11ZM401.125 43.9166C391.022 46.2619 365.868 54.2256 365.868 64.2254C365.868 73.0138 369.451 85.4878 375.688 98.4256C381.435 110.384 388.651 120.977 394.527 126.08C397.105 128.322 399.398 129.456 400.945 129.224L401.151 129.198L401.357 129.224C402.903 129.43 405.197 128.322 407.774 126.08C413.651 120.977 420.867 110.384 426.614 98.4256C432.851 85.462 436.434 72.9881 436.434 64.2254C436.408 54.2256 411.254 46.2619 401.125 43.9166Z" fill="#202020"/>
<path d="M286.798 235.587H175.744C174.97 235.587 174.326 234.943 174.326 234.17V121.698C174.326 120.925 174.97 120.281 175.744 120.281H286.772C287.545 120.281 288.19 120.925 288.19 121.698V234.17C288.215 234.943 287.571 235.587 286.798 235.587ZM177.161 232.752H285.355V123.116H177.161V232.752Z" fill="#0042BD"/>
<path d="M286.798 235.587C286.437 235.587 286.076 235.458 285.792 235.175L174.738 122.678C174.197 122.111 174.197 121.234 174.738 120.667C175.305 120.126 176.181 120.126 176.748 120.667L287.777 233.139C288.318 233.706 288.318 234.582 287.777 235.149C287.519 235.433 287.158 235.587 286.798 235.587Z" fill="#0042BD"/>
<path d="M175.744 235.587C175.383 235.587 175.022 235.459 174.738 235.175C174.171 234.634 174.171 233.732 174.738 233.165L285.767 120.693C286.308 120.126 287.21 120.126 287.777 120.693C288.344 121.234 288.344 122.136 287.777 122.703L176.749 235.149C176.491 235.433 176.13 235.587 175.744 235.587Z" fill="#0042BD"/>
<path d="M148.708 142.394H77.0086C76.2354 142.394 75.5911 141.749 75.5911 140.976C75.5911 140.203 76.2354 139.559 77.0086 139.559H148.708C149.481 139.559 150.125 140.203 150.125 140.976C150.125 141.749 149.507 142.394 148.708 142.394Z" fill="#202020"/>
<path d="M148.708 164.352H77.0086C76.2354 164.352 75.5911 163.708 75.5911 162.934C75.5911 162.161 76.2354 161.517 77.0086 161.517H148.708C149.481 161.517 150.125 162.161 150.125 162.934C150.125 163.708 149.507 164.352 148.708 164.352Z" fill="#202020"/>
<path d="M428.47 273.447L424.294 272.7C423.908 271.953 423.908 271.179 423.547 270.432L425.815 267.004L427.722 264.35L417.851 254.479L415.197 256.386L411.769 258.654C411.022 258.267 410.248 258.267 409.501 257.907L408.754 253.731L408.006 250.69H394.347L393.599 253.731L392.852 257.907C392.104 258.293 391.331 258.293 390.584 258.654L387.156 256.386L384.502 254.865L375.017 264.35L376.924 267.004L379.192 270.432C378.445 271.179 378.445 271.953 378.058 272.7L373.883 273.447L370.842 274.195V287.854L373.883 288.602L378.058 289.349C378.445 290.096 378.445 290.87 378.806 291.617L376.538 295.045L374.631 297.699L384.502 307.57L387.156 305.663L390.584 303.395C391.331 303.782 392.104 303.782 392.852 304.143L393.599 308.318L394.347 311.359H408.006L408.754 308.318L409.501 304.143C410.248 303.756 411.022 303.756 411.769 303.395L415.197 305.663L417.851 307.57L427.722 297.699L425.815 295.045L423.547 291.617C423.934 290.87 424.294 290.096 424.294 289.349L428.47 288.602L431.511 287.854V274.195C431.511 274.221 428.47 273.447 428.47 273.447ZM427.722 284.839L421.279 285.973C420.892 287.88 420.145 289.761 419.011 291.669L422.439 296.978L417.13 302.287L411.82 298.859C409.913 299.993 408.032 300.766 406.125 301.127L404.991 307.57H397.388L396.254 301.127C394.347 300.741 392.465 299.993 390.558 298.859L385.249 302.287L379.94 296.978L383.368 291.669C382.234 289.761 381.46 287.88 381.1 285.973L374.656 284.839V277.236L381.1 276.102C381.486 274.195 382.234 272.313 383.368 270.406L379.579 265.097L384.888 259.788L390.197 263.216C392.104 262.082 393.986 261.308 395.893 260.948L397.414 254.505H405.017L406.151 260.948C408.058 261.334 409.939 262.082 411.846 263.216L417.155 259.788L422.465 265.097L419.037 270.406C420.171 272.313 420.944 274.195 421.305 276.102L427.748 277.236V284.839H427.722Z" fill="#202020"/>
<path d="M401.125 267.752C393.909 267.752 387.826 273.834 387.826 281.05C387.826 288.267 393.909 294.349 401.125 294.349C408.341 294.349 414.423 288.267 414.423 281.05C414.423 273.834 408.341 267.752 401.125 267.752ZM401.125 290.535C395.816 290.535 391.64 286.36 391.64 281.05C391.64 275.741 395.816 271.566 401.125 271.566C406.434 271.566 410.609 275.741 410.609 281.05C410.609 286.36 406.46 290.535 401.125 290.535Z" fill="#202020"/>
</svg>
