<svg width="577" height="470" viewBox="0 0 577 470" fill="none" xmlns="http://www.w3.org/2000/svg">
<path d="M288.417 468.181C417.199 468.181 521.598 363.782 521.598 235C521.598 106.218 417.199 1.81914 288.417 1.81914C159.634 1.81914 55.2358 106.218 55.2358 235C55.2358 363.782 159.634 468.181 288.417 468.181Z" fill="white"/>
<path d="M505.457 176.49H87.8481V382.714H505.457V176.49Z" fill="#0042BD"/>
<path d="M507.276 384.533H86.0288V174.671H507.276V384.533ZM89.6671 380.895H503.638V178.309H89.6671V380.895Z" fill="#202020"/>
<path d="M505.457 411.159H87.848C86.8557 411.159 86.0288 410.332 86.0288 409.34V149.831C86.0288 148.839 86.8557 148.012 87.848 148.012H505.457C506.449 148.012 507.276 148.839 507.276 149.831V409.34C507.276 410.365 506.449 411.159 505.457 411.159ZM89.6671 407.521H503.638V151.65H89.6671V407.521Z" fill="#202020"/>
<path d="M349.044 470H244.261C243.269 470 242.442 469.173 242.442 468.181V409.34C242.442 408.348 243.269 407.521 244.261 407.521H349.077C350.069 407.521 350.896 408.348 350.896 409.34V468.181C350.863 469.173 350.069 470 349.044 470ZM246.08 466.362H347.258V411.159H246.08V466.362Z" fill="#202020"/>
<path d="M296.652 470H154.825C153.833 470 153.006 469.173 153.006 468.181C153.006 467.189 153.833 466.362 154.825 466.362H296.652C297.645 466.362 298.472 467.189 298.472 468.181C298.472 469.173 297.645 470 296.652 470Z" fill="#202020"/>
<path d="M438.479 470H296.652C295.66 470 294.833 469.173 294.833 468.181C294.833 467.189 295.66 466.362 296.652 466.362H438.479C439.471 466.362 440.298 467.189 440.298 468.181C440.298 469.173 439.471 470 438.479 470Z" fill="#202020"/>
<path d="M268.009 230.469H116.557C115.565 230.469 114.738 229.642 114.738 228.65C114.738 227.657 115.565 226.83 116.557 226.83H268.009C269.001 226.83 269.828 227.657 269.828 228.65C269.828 229.642 269.035 230.469 268.009 230.469Z" fill="white"/>
<path d="M268.009 255.837H116.557C115.565 255.837 114.738 255.011 114.738 254.018C114.738 253.026 115.565 252.199 116.557 252.199H268.009C269.001 252.199 269.828 253.026 269.828 254.018C269.828 255.011 269.035 255.837 268.009 255.837Z" fill="white"/>
<path d="M221.274 281.173H116.557C115.565 281.173 114.738 280.346 114.738 279.354C114.738 278.362 115.565 277.535 116.557 277.535H221.274C222.266 277.535 223.093 278.362 223.093 279.354C223.093 280.346 222.266 281.173 221.274 281.173Z" fill="white"/>
<path d="M244.658 331.878H139.942C138.949 331.878 138.123 331.051 138.123 330.058C138.123 329.066 138.949 328.239 139.942 328.239H244.658C245.65 328.239 246.477 329.066 246.477 330.058C246.477 331.051 245.65 331.878 244.658 331.878Z" fill="white"/>
<path d="M246.841 306.509H116.557C115.565 306.509 114.738 305.682 114.738 304.69C114.738 303.697 115.565 302.87 116.557 302.87H246.841C247.833 302.87 248.66 303.697 248.66 304.69C248.66 305.682 247.833 306.509 246.841 306.509Z" fill="white"/>
<path d="M451.676 205.133H363.994C363.001 205.133 362.175 204.306 362.175 203.314C362.175 202.322 363.001 201.495 363.994 201.495H451.676C452.669 201.495 453.495 202.322 453.495 203.314C453.495 204.306 452.702 205.133 451.676 205.133Z" fill="#202020"/>
<path d="M440.993 274.029H366.871C365.879 274.029 365.052 273.202 365.052 272.21C365.052 271.217 365.879 270.391 366.871 270.391H440.993C441.985 270.391 442.812 271.217 442.812 272.21C442.812 273.202 441.985 274.029 440.993 274.029Z" fill="white"/>
<path d="M440.993 299.365H366.871C365.879 299.365 365.052 298.538 365.052 297.545C365.052 296.553 365.879 295.726 366.871 295.726H440.993C441.985 295.726 442.812 296.553 442.812 297.545C442.812 298.538 441.985 299.365 440.993 299.365Z" fill="white"/>
<path d="M462.393 248.66H353.31C352.318 248.66 351.491 247.833 351.491 246.841C351.491 245.849 352.318 245.022 353.31 245.022H462.393C463.385 245.022 464.212 245.849 464.212 246.841C464.212 247.833 463.385 248.66 462.393 248.66Z" fill="white"/>
<path d="M462.393 324.7H353.31C352.318 324.7 351.491 323.873 351.491 322.881C351.491 321.889 352.318 321.062 353.31 321.062H462.393C463.385 321.062 464.212 321.889 464.212 322.881C464.212 323.873 463.385 324.7 462.393 324.7Z" fill="white"/>
<path d="M462.393 350.069H353.31C352.318 350.069 351.491 349.242 351.491 348.25C351.491 347.258 352.318 346.431 353.31 346.431H462.393C463.385 346.431 464.212 347.258 464.212 348.25C464.212 349.242 463.385 350.069 462.393 350.069Z" fill="white"/>
<path d="M335.946 384.533C334.954 384.533 334.127 383.707 334.127 382.714V176.49C334.127 175.498 334.954 174.671 335.946 174.671C336.938 174.671 337.765 175.498 337.765 176.49V382.714C337.765 383.707 336.971 384.533 335.946 384.533Z" fill="#202020"/>
<path d="M388.304 35.0267H260.468V118.244H388.304V35.0267Z" fill="#0042BD"/>
<path d="M225.342 1.81914V218.297H575.014V1.81914H225.342ZM388.304 189.488H260.468V147.88H388.304V189.488ZM388.304 118.244H260.468V35.0267H388.304V118.244Z" fill="white"/>
<path fill-rule="evenodd" clip-rule="evenodd" d="M223.523 1.81914C223.523 0.814457 224.337 0 225.342 0H575.014C576.019 0 576.833 0.814457 576.833 1.81914V218.297C576.833 219.302 576.019 220.116 575.014 220.116H225.342C224.337 220.116 223.523 219.302 223.523 218.297V1.81914ZM227.161 3.63828V216.478H573.195V3.63828H227.161ZM258.649 35.0267C258.649 34.0221 259.463 33.2076 260.468 33.2076H388.304C389.309 33.2076 390.123 34.0221 390.123 35.0267V118.244C390.123 119.249 389.309 120.063 388.304 120.063H260.468C259.463 120.063 258.649 119.249 258.649 118.244V35.0267ZM262.287 36.8459V116.425H386.485V36.8459H262.287ZM258.649 147.88C258.649 146.875 259.463 146.061 260.468 146.061H388.304C389.309 146.061 390.123 146.875 390.123 147.88V189.488C390.123 190.493 389.309 191.308 388.304 191.308H260.468C259.463 191.308 258.649 190.493 258.649 189.488V147.88ZM262.287 149.699V187.669H386.485V149.699H262.287Z" fill="#202020"/>
<path d="M534.034 36.4159H413.11C412.118 36.4159 411.291 35.589 411.291 34.5968C411.291 33.6045 412.118 32.7776 413.11 32.7776H534.034C535.026 32.7776 535.853 33.6045 535.853 34.5968C535.853 35.589 535.059 36.4159 534.034 36.4159Z" fill="#202020"/>
<path d="M509.889 61.7846H413.144C412.151 61.7846 411.324 60.9578 411.324 59.9655C411.324 58.9732 412.151 58.1464 413.144 58.1464H509.889C510.881 58.1464 511.708 58.9732 511.708 59.9655C511.708 60.9578 510.881 61.7846 509.889 61.7846Z" fill="#202020"/>
<path d="M509.889 87.1203H413.144C412.151 87.1203 411.324 86.2935 411.324 85.3012C411.324 84.3089 412.151 83.4821 413.144 83.4821H509.889C510.881 83.4821 511.708 84.3089 511.708 85.3012C511.708 86.2935 510.881 87.1203 509.889 87.1203Z" fill="#202020"/>
<path d="M388.304 147.88H260.468V189.488H388.304V147.88Z" fill="white"/>
<path d="M388.304 191.308H260.468C259.476 191.308 258.649 190.481 258.649 189.488V147.88C258.649 146.887 259.476 146.061 260.468 146.061H388.304C389.296 146.061 390.123 146.887 390.123 147.88V189.488C390.123 190.481 389.296 191.308 388.304 191.308ZM262.287 187.669H386.485V149.699H262.287V187.669Z" fill="#202020"/>
<path d="M109.016 462.79H17.8275C8.99643 462.79 1.81909 455.612 1.81909 446.781V229.609C1.81909 220.778 8.99643 213.6 17.8275 213.6H109.016C117.847 213.6 125.025 220.778 125.025 229.609V446.814C125.025 455.645 117.847 462.79 109.016 462.79Z" fill="white"/>
<path d="M109.016 464.609H17.8276C8.00422 464.609 0 456.605 0 446.781V229.609C0 219.785 8.00422 211.781 17.8276 211.781H109.016C118.84 211.781 126.844 219.785 126.844 229.609V446.814C126.844 456.638 118.84 464.609 109.016 464.609ZM17.8276 215.419C10.0218 215.419 3.63828 221.77 3.63828 229.609V446.814C3.63828 454.62 9.98874 461.004 17.8276 461.004H109.016C116.822 461.004 123.205 454.653 123.205 446.814V229.609C123.205 221.803 116.855 215.419 109.016 215.419H17.8276Z" fill="#202020"/>
<path d="M125.025 444.301H1.81914C0.826882 444.301 0 443.474 0 442.481V233.909C0 232.916 0.826882 232.089 1.81914 232.089H125.025C126.017 232.089 126.844 232.916 126.844 233.909V442.481C126.844 443.507 126.017 444.301 125.025 444.301ZM3.63828 440.662H123.205V235.728H3.63828V440.662Z" fill="#202020"/>
<path d="M103.691 367.5H23.1526C22.1604 367.5 21.3335 366.673 21.3335 365.681V261.063C21.3335 260.071 22.1604 259.244 23.1526 259.244H103.658C104.65 259.244 105.477 260.071 105.477 261.063V365.714C105.51 366.706 104.683 367.5 103.691 367.5ZM24.9718 363.861H101.872V262.882H24.9718V363.861Z" fill="#0042BD"/>
<path d="M103.691 367.5C103.162 367.5 102.6 367.268 102.236 366.805L21.7305 262.155C21.1021 261.361 21.2675 260.203 22.0613 259.608C22.8551 258.98 24.0127 259.145 24.6081 259.939L105.113 364.589C105.742 365.383 105.576 366.54 104.783 367.136C104.452 367.4 104.055 367.5 103.691 367.5Z" fill="#0042BD"/>
<path d="M23.1526 367.5C22.7557 367.5 22.3588 367.367 22.0281 367.136C21.2343 366.507 21.0689 365.383 21.6973 364.589L102.203 259.939C102.831 259.145 103.956 258.98 104.749 259.608C105.543 260.236 105.709 261.361 105.08 262.155L24.6079 366.805C24.2441 367.268 23.7149 367.5 23.1526 367.5Z" fill="#0042BD"/>
<path d="M534.034 191.308H413.11C412.118 191.308 411.291 190.481 411.291 189.488V113.051C411.291 112.059 412.118 111.232 413.11 111.232H534.034C535.026 111.232 535.853 112.059 535.853 113.051V189.488C535.853 190.481 535.059 191.308 534.034 191.308ZM414.963 187.669H532.248V114.871H414.963V187.669Z" fill="#0042BD"/>
<path d="M413.144 191.308C412.548 191.308 411.953 191.01 411.589 190.448C411.06 189.588 411.291 188.463 412.151 187.934L533.075 111.497C533.935 110.968 535.059 111.199 535.588 112.059C536.118 112.919 535.886 114.044 535.026 114.573L414.103 191.01C413.805 191.208 413.474 191.308 413.144 191.308Z" fill="#0042BD"/>
<path d="M534.034 191.308C533.703 191.308 533.372 191.208 533.075 191.01L412.151 114.573C411.291 114.044 411.06 112.919 411.589 112.059C412.118 111.199 413.243 110.968 414.103 111.497L535.026 187.934C535.886 188.463 536.118 189.588 535.588 190.448C535.225 191.01 534.662 191.308 534.034 191.308Z" fill="#0042BD"/>
<path d="M100.483 395.25H26.3609C25.3686 395.25 24.5417 394.423 24.5417 393.431C24.5417 392.438 25.3686 391.612 26.3609 391.612H100.483C101.475 391.612 102.302 392.438 102.302 393.431C102.302 394.423 101.475 395.25 100.483 395.25Z" fill="#202020"/>
<path d="M100.483 411.159H26.3609C25.3686 411.159 24.5417 410.332 24.5417 409.34C24.5417 408.348 25.3686 407.521 26.3609 407.521H100.483C101.475 407.521 102.302 408.348 102.302 409.34C102.302 410.332 101.475 411.159 100.483 411.159Z" fill="#202020"/>
</svg>
