<svg width="283" height="105" viewBox="0 0 283 105" fill="none" xmlns="http://www.w3.org/2000/svg">
<path d="M93.7141 33.3473C90.4999 36.687 88.8928 41.0312 88.8928 46.4049C88.8928 51.7787 90.4999 56.1229 93.7141 59.4626C96.9283 62.8023 101.122 64.4597 106.295 64.4597C111.367 64.4597 115.536 62.8526 118.775 59.6133C118.925 59.4626 119.151 59.4626 119.277 59.6133L121.01 61.2455C121.16 61.3962 121.16 61.6222 121.01 61.7728C117.218 65.6148 112.246 67.5483 106.119 67.5483C99.9667 67.5483 94.9697 65.5897 91.1779 61.6975C87.3611 57.7802 85.4526 52.7078 85.4526 46.4301C85.4526 40.1523 87.3611 35.0548 91.1779 31.1626C94.9948 27.2453 99.9667 25.3118 106.119 25.3118C112.171 25.3118 117.143 27.2453 121.01 31.0873C121.16 31.2379 121.16 31.464 121.01 31.6146L119.277 33.297C119.126 33.4477 118.9 33.4226 118.75 33.297C115.536 30.0326 111.392 28.4004 106.27 28.4004C101.122 28.3502 96.9283 30.0075 93.7141 33.3473Z" fill="#191918"/>
<path d="M128.392 34.1006C128.016 33.6988 127.84 33.2217 127.79 32.6693C127.739 31.916 128.041 31.1877 128.618 30.6855C129.02 30.3089 129.522 30.108 130.05 30.0829C130.803 30.0326 131.531 30.334 132.033 30.9115C132.41 31.3133 132.611 31.8155 132.636 32.368C132.686 33.1213 132.385 33.8495 131.807 34.3517C131.406 34.7284 130.903 34.9293 130.376 34.9544C129.648 34.9544 128.894 34.653 128.392 34.1006ZM128.618 66.7699V40.8554C128.618 40.6546 128.794 40.4788 128.995 40.4788H131.531C131.732 40.4788 131.908 40.6546 131.908 40.8554V66.7699C131.908 66.9708 131.732 67.1466 131.531 67.1466H128.995C128.794 67.1215 128.618 66.9708 128.618 66.7699Z" fill="#191918"/>
<path d="M138.386 42.8392V40.8554C138.386 40.6545 138.562 40.4788 138.763 40.4788H141.576C141.776 40.4788 141.952 40.303 141.952 40.1021V34.9042C141.952 34.7033 142.128 34.5275 142.329 34.5275H144.966C145.166 34.5275 145.342 34.7033 145.342 34.9042V40.1021C145.342 40.303 145.518 40.4788 145.719 40.4788H152.75C152.951 40.4788 153.127 40.6545 153.127 40.8554V42.8392C153.127 43.0401 152.951 43.2159 152.75 43.2159H145.719C145.518 43.2159 145.342 43.3916 145.342 43.5925V59.3873C145.342 60.9693 145.819 62.2499 146.774 63.2041C147.728 64.1835 148.958 64.6606 150.515 64.6606C151.268 64.6606 151.971 64.535 152.599 64.2588C152.85 64.1584 153.101 64.3341 153.101 64.5852V66.6946C153.101 66.8452 153.001 66.9959 152.85 67.0461C151.846 67.3726 150.867 67.5483 149.963 67.5483C147.552 67.5483 145.618 66.795 144.162 65.2884C142.706 63.7817 141.977 61.8231 141.977 59.3622V43.5674C141.977 43.3665 141.802 43.1908 141.601 43.1908H138.788C138.562 43.2159 138.386 43.0401 138.386 42.8392Z" fill="#191918"/>
<path d="M184.339 41.0061L165.556 81.736C165.506 81.8615 165.355 81.9369 165.23 81.9369H162.443C162.166 81.9369 161.991 81.6606 162.116 81.4095L169.172 67.2972C169.223 67.1968 169.223 67.0712 169.172 66.9708L157.27 41.0061C157.169 40.755 157.345 40.4788 157.596 40.4788H160.459C160.609 40.4788 160.735 40.5541 160.785 40.7048L170.478 62.4759C170.604 62.7521 171.005 62.7521 171.156 62.4759L180.849 40.7048C180.899 40.5792 181.05 40.4788 181.175 40.4788H183.988C184.289 40.4788 184.465 40.755 184.339 41.0061Z" fill="#191918"/>
<path d="M210.932 30.2084L209.249 31.8909C209.099 32.0415 208.873 32.0164 208.722 31.8909C207.768 30.9115 206.512 30.0829 204.955 29.43C203.248 28.7269 201.566 28.3753 199.858 28.3753C197.221 28.3753 195.238 29.1537 193.907 30.7106C192.576 32.2675 191.923 34.0504 191.923 36.0593C191.923 37.4906 192.3 38.721 193.053 39.7505C193.806 40.8052 194.786 41.6339 195.991 42.2868C197.196 42.9397 198.527 43.5423 199.984 44.1199C201.44 44.6974 202.921 45.3001 204.403 45.953C205.885 46.6058 207.215 47.3341 208.421 48.1125C209.626 48.8909 210.605 49.9707 211.359 51.3016C212.112 52.6324 212.489 54.1893 212.489 55.922C212.489 59.0357 211.434 61.7477 209.3 64.0579C207.165 66.3681 204.077 67.5232 200.059 67.5232C195.137 67.5232 191.069 65.8659 187.88 62.5764C187.755 62.4257 187.755 62.1997 187.88 62.0742L189.487 60.467C189.638 60.3164 189.864 60.3164 190.014 60.467C191.17 61.6724 192.576 62.6266 194.283 63.3297C196.116 64.083 197.95 64.4597 199.758 64.4597C202.846 64.4597 205.156 63.5808 206.688 61.7979C208.22 60.0151 208.998 58.0815 208.998 55.9973C208.998 54.4153 208.496 53.0593 207.492 51.9293C206.487 50.7993 205.207 49.9456 203.675 49.3178C202.143 48.7152 200.486 48.0371 198.728 47.2838C196.97 46.5305 195.313 45.7521 193.781 44.9736C192.249 44.1952 190.969 43.0401 189.964 41.5083C188.96 39.9765 188.458 38.1937 188.458 36.0844C188.458 33.0962 189.412 30.5349 191.295 28.4255C193.178 26.3162 195.966 25.2616 199.657 25.2616C204.227 25.2616 207.994 26.7431 210.957 29.6811C211.057 29.8317 211.057 30.0577 210.932 30.2084Z" fill="#191918"/>
<path d="M222.508 63.7315C219.997 61.1953 218.741 57.8806 218.741 53.8126C218.741 49.7447 219.997 46.43 222.508 43.8938C225.019 41.3576 228.283 40.077 232.301 40.077C236.369 40.077 239.659 41.3325 242.17 43.8687C244.681 46.4049 245.936 49.7196 245.936 53.8126C245.936 57.9308 244.681 61.2455 242.17 63.7566C239.659 66.2928 236.369 67.5483 232.301 67.5483C228.283 67.5483 225.019 66.2677 222.508 63.7315ZM224.919 46.0534C223.035 48.0372 222.081 50.6236 222.081 53.8126C222.081 57.0017 223.035 59.5882 224.919 61.5719C226.802 63.5557 229.288 64.535 232.326 64.535C235.365 64.535 237.826 63.5557 239.734 61.5719C241.617 59.5882 242.571 57.0017 242.571 53.8126C242.571 50.6236 241.617 48.0372 239.734 46.0534C237.851 44.0696 235.365 43.0903 232.326 43.0903C229.288 43.0903 226.802 44.0696 224.919 46.0534Z" fill="#191918"/>
<path d="M249.603 42.8392V40.8554C249.603 40.6545 249.779 40.4788 249.979 40.4788H253.169C253.369 40.4788 253.545 40.303 253.545 40.1021V30.7609C253.545 28.1995 254.299 26.1404 255.805 24.6087C257.312 23.0769 259.321 22.2985 261.857 22.2985C262.811 22.2985 263.79 22.4742 264.795 22.8007C264.946 22.8509 265.046 23.0016 265.046 23.1522V25.2867C265.046 25.5378 264.77 25.7136 264.544 25.6131C263.891 25.3369 263.138 25.2114 262.334 25.2114C260.727 25.2114 259.396 25.7136 258.392 26.7431C257.387 27.7727 256.885 29.1035 256.885 30.7609V40.1021C256.885 40.303 257.061 40.4788 257.262 40.4788H264.694C264.895 40.4788 265.071 40.6545 265.071 40.8554V42.8392C265.071 43.0401 264.895 43.2159 264.694 43.2159H257.262C257.061 43.2159 256.885 43.3916 256.885 43.5925V66.795C256.885 66.9959 256.709 67.1717 256.508 67.1717H253.872C253.671 67.1717 253.495 66.9959 253.495 66.795V43.5925C253.495 43.3916 253.319 43.2159 253.118 43.2159H249.929C249.779 43.2159 249.603 43.0401 249.603 42.8392Z" fill="#191918"/>
<path d="M268.26 42.8392V40.8554C268.26 40.6545 268.436 40.4788 268.637 40.4788H271.449C271.65 40.4788 271.826 40.303 271.826 40.1021V34.9042C271.826 34.7033 272.002 34.5275 272.203 34.5275H274.839C275.04 34.5275 275.216 34.7033 275.216 34.9042V40.1021C275.216 40.303 275.392 40.4788 275.593 40.4788H282.624C282.825 40.4788 283 40.6545 283 40.8554V42.8392C283 43.0401 282.825 43.2159 282.624 43.2159H275.593C275.392 43.2159 275.216 43.3916 275.216 43.5925V59.3873C275.216 60.9693 275.693 62.2499 276.647 63.2041C277.601 64.1835 278.832 64.6606 280.389 64.6606C281.142 64.6606 281.845 64.535 282.473 64.2588C282.724 64.1584 282.975 64.3341 282.975 64.5852V66.6946C282.975 66.8452 282.875 66.9959 282.724 67.0461C281.72 67.3726 280.74 67.5483 279.836 67.5483C277.426 67.5483 275.492 66.795 274.036 65.2884C272.579 63.7817 271.851 61.8231 271.851 59.3622V43.5674C271.851 43.3665 271.675 43.1908 271.474 43.1908H268.662C268.436 43.2159 268.26 43.0401 268.26 42.8392Z" fill="#191918"/>
<path d="M1.20532 45.3252H8.18616C8.83904 45.3252 9.39148 44.7979 9.39148 44.1199V39.2483C9.39148 36.6619 7.28216 34.5526 4.69574 34.5526C2.10932 34.5526 0 36.6619 0 39.2483V44.1199C0 44.7979 0.527329 45.3252 1.20532 45.3252ZM2.41065 39.2735C2.41065 38.0179 3.44019 36.9884 4.69574 36.9884C5.95128 36.9884 6.98083 38.0179 6.98083 39.2735V42.9397H2.41065V39.2735Z" fill="#0A042E"/>
<path d="M28.3504 32.2173C28.5262 32.3177 28.7271 32.3428 28.9028 32.3428C29.1288 32.3428 29.3799 32.2675 29.5808 32.1419L32.3932 30.2084L35.2057 32.1419C35.5823 32.3931 36.0594 32.4181 36.4361 32.2173C36.8379 32.0164 37.089 31.5895 37.089 31.1626V15.9203C37.089 13.3339 34.9797 11.2245 32.3932 11.2245C29.8068 11.2245 27.6975 13.3339 27.6975 15.9203V31.1626C27.7226 31.6146 27.9737 32.0164 28.3504 32.2173ZM30.1082 15.9203C30.1082 14.6648 31.1377 13.6352 32.3932 13.6352C33.6488 13.6352 34.6783 14.6648 34.6783 15.9203V28.8775L33.0712 27.7726C32.6695 27.4964 32.117 27.4964 31.7153 27.7726L30.1082 28.8775V15.9203V15.9203Z" fill="#0A042E"/>
<path d="M14.7903 37.5408C14.9159 37.591 15.0414 37.6161 15.167 37.6161C15.5437 37.6161 15.8952 37.4403 16.1212 37.139L23.102 27.9484C23.2527 27.7475 23.3531 27.4964 23.3531 27.2202V24.1315C23.3531 21.5451 21.2438 19.4358 18.6574 19.4358C16.071 19.4358 13.9617 21.5451 13.9617 24.1315V36.4108C13.9868 36.913 14.3132 37.365 14.7903 37.5408ZM16.3723 24.1315C16.3723 22.876 17.4019 21.8465 18.6574 21.8465C19.913 21.8465 20.9425 22.876 20.9425 24.1315V26.8184L16.3472 32.845V24.1315H16.3723Z" fill="#0A042E"/>
<path d="M42.1362 34.176L49.117 37.5157C49.2928 37.591 49.4686 37.6413 49.6444 37.6413C49.8704 37.6413 50.0964 37.591 50.2721 37.4655C50.6237 37.2395 50.8246 36.8628 50.8246 36.461V23.8051C50.8246 21.2187 48.7153 19.1094 46.1288 19.1094C43.5424 19.1094 41.4331 21.2187 41.4331 23.8051V33.1213C41.4582 33.5733 41.7344 34.0002 42.1362 34.176ZM43.8689 23.78C43.8689 22.5245 44.8984 21.4949 46.154 21.4949C47.4095 21.4949 48.439 22.5245 48.439 23.78V34.5275L43.8438 32.3428V23.78H43.8689Z" fill="#0A042E"/>
<path d="M73.4747 58.7595C72.9976 57.6044 72.0936 56.7004 70.9134 56.2233C68.5278 55.244 65.7656 56.3991 64.7863 58.7846L62.451 64.5099C62.2752 64.9117 62.3506 65.3888 62.6268 65.7403C62.8528 66.0165 63.2043 66.1672 63.5559 66.1672C63.6312 66.1672 63.7066 66.1672 63.807 66.1421L72.0434 64.4597C72.4451 64.3843 72.7716 64.1081 72.9223 63.7315L73.4998 62.3504C73.9518 61.1952 73.9518 59.9146 73.4747 58.7595ZM71.2649 61.4464L70.9385 62.2499L65.5145 63.3548L66.9961 59.7137C67.2221 59.1362 67.6741 58.7093 68.2265 58.4582C68.5027 58.3326 68.8041 58.2824 69.1054 58.2824C69.4067 58.2824 69.6829 58.3326 69.9843 58.4582C70.5618 58.6842 70.9887 59.1362 71.2398 59.6886C71.4909 60.2662 71.4909 60.8688 71.2649 61.4464Z" fill="#0A042E"/>
<path d="M4.69572 30.3842C7.00592 30.3842 8.88924 28.5008 8.88924 26.1906C8.88924 23.8804 7.00592 21.9971 4.69572 21.9971C2.38552 21.9971 0.502197 23.8804 0.502197 26.1906C0.502197 28.5008 2.38552 30.3842 4.69572 30.3842ZM4.69572 24.3827C5.70016 24.3827 6.5037 25.1862 6.5037 26.1906C6.5037 27.1951 5.70016 27.9986 4.69572 27.9986C3.69128 27.9986 2.88773 27.1951 2.88773 26.1906C2.88773 25.1862 3.69128 24.3827 4.69572 24.3827Z" fill="#0A042E"/>
<path d="M32.5187 36.7875L34.3769 38.4448L34.4522 66.1421C34.4522 66.795 34.9796 67.3475 35.6576 67.3475C36.3105 67.3475 36.8629 66.795 36.8629 66.1421L36.7876 37.9175C36.7876 37.591 36.6369 37.2646 36.3858 37.0386L33.3976 34.3517C32.9707 33.9499 32.3178 33.9499 31.8407 34.3015L28.4256 37.0135C28.1494 37.2395 27.9736 37.591 27.9736 37.9426V71.8674C27.9736 74.3283 29.9825 76.3121 32.4183 76.3121C34.8791 76.3121 36.8629 74.3032 36.8629 71.8674C36.8629 71.2145 36.3356 70.6621 35.6576 70.6621C34.9796 70.6621 34.4522 71.1894 34.4522 71.8674C34.4522 72.9974 33.5231 73.9265 32.3932 73.9265C31.2632 73.9265 30.3341 72.9974 30.3341 71.8674V38.5201L32.5187 36.7875Z" fill="#0A042E"/>
<path d="M32.4182 87.8882C31.012 87.8882 29.6058 87.7124 28.2498 87.3357C27.5969 87.1599 26.944 87.5366 26.7682 88.1895C26.5925 88.8173 26.9691 89.4953 27.622 89.671C29.1789 90.0979 30.786 90.2988 32.4182 90.2988C42.5881 90.2988 50.8496 82.0373 50.8496 71.8674V54.7418C50.8496 54.0889 50.3223 53.5364 49.6443 53.5364C48.9914 53.5364 48.4389 54.0638 48.4389 54.7418V71.8674C48.4389 80.6813 41.2572 87.8882 32.4182 87.8882Z" fill="#0A042E"/>
<path d="M22.8258 87.5868C23.0267 87.7124 23.2276 87.7626 23.4536 87.7626C23.8554 87.7626 24.2571 87.5617 24.4831 87.185C24.8347 86.6075 24.6589 85.8793 24.0814 85.5277C19.2601 82.5898 16.3723 77.4671 16.3723 71.8172C16.3723 71.1643 15.845 70.6118 15.167 70.6118C14.489 70.6118 13.9617 71.1392 13.9617 71.8172C13.9868 78.3209 17.3014 84.222 22.8258 87.5868Z" fill="#0A042E"/>
<path d="M15.1921 65.3888C15.845 65.3888 16.3975 64.8615 16.3975 64.1835V45.5009L20.9928 39.5497V71.8172C20.9928 78.12 26.1154 83.2678 32.4433 83.2678C38.7713 83.2678 43.8939 78.1451 43.8939 71.8172V40.9559L48.4892 43.1405V49.5438C48.4892 50.1967 49.0165 50.7491 49.6945 50.7491C50.3474 50.7491 50.8999 50.2218 50.8999 49.5438V42.3872C50.8999 41.9352 50.6236 41.5083 50.2219 41.3074L43.241 37.9928C42.8644 37.817 42.4375 37.8421 42.0859 38.0681C41.7344 38.2941 41.5335 38.6708 41.5335 39.0726V71.8423C41.5335 76.8394 37.4655 80.8822 32.4936 80.8822C27.4965 80.8822 23.4536 76.8143 23.4536 71.8423V36.0593C23.4536 35.557 23.1272 35.0799 22.6501 34.9293C22.173 34.7535 21.6205 34.9293 21.3192 35.331L14.3384 44.371C14.1877 44.5718 14.0873 44.8481 14.0873 45.0992V64.1835C13.9868 64.8615 14.5141 65.3888 15.1921 65.3888Z" fill="#0A042E"/>
<path d="M2.41065 71.8423V59.7137C2.41065 59.0608 1.88332 58.5084 1.20532 58.5084C0.527329 58.5084 0 59.0357 0 59.7137V71.8423C0 78.4465 1.98376 84.7995 5.70018 90.2235C5.92617 90.5499 6.30284 90.7508 6.6795 90.7508C6.9055 90.7508 7.15661 90.6755 7.3575 90.5499C7.90994 90.1733 8.03549 89.42 7.65883 88.8926C4.21863 83.8453 2.41065 77.9694 2.41065 71.8423Z" fill="#0A042E"/>
<path d="M69.0801 67.8497L60.467 69.9088C60.1406 69.9841 59.8393 70.2101 59.6886 70.5114L54.1391 81.0078C53.8378 81.5853 54.0638 82.3136 54.6413 82.64C55.2189 82.9413 55.9471 82.7153 56.2735 82.1378L61.5719 72.1185L67.0461 70.8128C63.9072 76.6385 58.6339 86.482 58.3326 87.0344C52.9589 96.1999 43.0401 101.875 32.4182 101.875C24.9853 101.875 17.8538 99.1379 12.3294 94.1659C11.8272 93.7139 11.0739 93.7641 10.647 94.2664C10.195 94.7686 10.2452 95.5219 10.7474 95.9488C16.6987 101.323 24.4078 104.26 32.4182 104.26C43.8687 104.26 54.5911 98.1083 60.3917 88.2397C60.8688 87.4362 70.0343 70.3105 70.4109 69.5823C70.6369 69.1554 70.5867 68.6532 70.3105 68.2766C70.0343 67.8999 69.5321 67.7241 69.0801 67.8497Z" fill="#0A042E"/>
<path d="M1.20532 55.7964C1.85821 55.7964 2.41065 55.2691 2.41065 54.5911V50.7491H7.00594V71.8423C7.00594 85.8542 18.4063 97.2797 32.4433 97.2797C39.9766 97.2797 47.083 93.965 51.9545 88.1644C52.3814 87.6622 52.306 86.9088 51.8038 86.482C51.3016 86.0551 50.5483 86.1304 50.1214 86.6326C45.727 91.8808 39.2986 94.8941 32.4684 94.8941C19.7623 94.8941 9.4417 84.5735 9.4417 71.8674V49.5689C9.4417 48.916 8.91437 48.3636 8.23638 48.3636H1.20532C0.878882 48.3636 0.577551 48.4891 0.351553 48.7151C0.125555 48.9411 0 49.2425 0 49.5689V54.6162C0 55.2691 0.527329 55.7964 1.20532 55.7964Z" fill="#0A042E"/>
<path d="M18.6825 17.2512C20.9927 17.2512 22.8761 15.3679 22.8761 13.0577C22.8761 10.7475 20.9927 8.86414 18.6825 8.86414C16.3723 8.86414 14.489 10.7475 14.489 13.0577C14.489 15.3679 16.3723 17.2512 18.6825 17.2512ZM18.6825 11.2497C19.687 11.2497 20.4905 12.0532 20.4905 13.0577C20.4905 14.0621 19.687 14.8656 18.6825 14.8656C17.6781 14.8656 16.8745 14.0621 16.8745 13.0577C16.8745 12.0532 17.6781 11.2497 18.6825 11.2497Z" fill="#0A042E"/>
<path d="M32.4433 8.38705C34.7535 8.38705 36.6368 6.50371 36.6368 4.19351C36.6368 1.88331 34.7535 0 32.4433 0C30.1331 0 28.2498 1.88331 28.2498 4.19351C28.2498 6.50371 30.1331 8.38705 32.4433 8.38705ZM32.4433 2.38554C33.4477 2.38554 34.2513 3.18907 34.2513 4.19351C34.2513 5.19795 33.4477 6.00151 32.4433 6.00151C31.4388 6.00151 30.6353 5.19795 30.6353 4.19351C30.6353 3.18907 31.464 2.38554 32.4433 2.38554Z" fill="#0A042E"/>
<path d="M46.154 15.8198C48.4642 15.8198 50.3475 13.9365 50.3475 11.6263C50.3475 9.31611 48.4642 7.4328 46.154 7.4328C43.8438 7.4328 41.9604 9.31611 41.9604 11.6263C41.9604 13.9365 43.8438 15.8198 46.154 15.8198ZM46.154 9.81834C47.1584 9.81834 47.962 10.6219 47.962 11.6263C47.962 12.6307 47.1584 13.4343 46.154 13.4343C45.1495 13.4343 44.346 12.6307 44.346 11.6263C44.346 10.6219 45.1746 9.81834 46.154 9.81834Z" fill="#0A042E"/>
</svg>
