<svg width="74" height="105" viewBox="0 0 74 105" fill="none" xmlns="http://www.w3.org/2000/svg">
<path d="M1.20532 45.3252H8.18616C8.83904 45.3252 9.39148 44.7979 9.39148 44.1199V39.2483C9.39148 36.6619 7.28216 34.5526 4.69574 34.5526C2.10932 34.5526 0 36.6619 0 39.2483V44.1199C0 44.7979 0.527329 45.3252 1.20532 45.3252ZM2.41065 39.2735C2.41065 38.0179 3.44019 36.9884 4.69574 36.9884C5.95128 36.9884 6.98083 38.0179 6.98083 39.2735V42.9397H2.41065V39.2735Z" fill="#0A042E"/>
<path d="M28.3504 32.2173C28.5262 32.3177 28.7271 32.3428 28.9028 32.3428C29.1288 32.3428 29.3799 32.2675 29.5808 32.1419L32.3932 30.2084L35.2057 32.1419C35.5823 32.3931 36.0594 32.4181 36.4361 32.2173C36.8379 32.0164 37.089 31.5895 37.089 31.1626V15.9203C37.089 13.3339 34.9797 11.2245 32.3932 11.2245C29.8068 11.2245 27.6975 13.3339 27.6975 15.9203V31.1626C27.7226 31.6146 27.9737 32.0164 28.3504 32.2173ZM30.1082 15.9203C30.1082 14.6648 31.1377 13.6352 32.3932 13.6352C33.6488 13.6352 34.6783 14.6648 34.6783 15.9203V28.8775L33.0712 27.7726C32.6695 27.4964 32.117 27.4964 31.7153 27.7726L30.1082 28.8775V15.9203V15.9203Z" fill="#0A042E"/>
<path d="M14.7903 37.5408C14.9159 37.591 15.0414 37.6161 15.167 37.6161C15.5437 37.6161 15.8952 37.4403 16.1212 37.139L23.102 27.9484C23.2527 27.7475 23.3531 27.4964 23.3531 27.2202V24.1315C23.3531 21.5451 21.2438 19.4358 18.6574 19.4358C16.071 19.4358 13.9617 21.5451 13.9617 24.1315V36.4108C13.9868 36.913 14.3132 37.365 14.7903 37.5408ZM16.3723 24.1315C16.3723 22.876 17.4019 21.8465 18.6574 21.8465C19.913 21.8465 20.9425 22.876 20.9425 24.1315V26.8184L16.3472 32.845V24.1315H16.3723Z" fill="#0A042E"/>
<path d="M42.1362 34.176L49.117 37.5157C49.2928 37.591 49.4686 37.6413 49.6444 37.6413C49.8704 37.6413 50.0964 37.591 50.2721 37.4655C50.6237 37.2395 50.8246 36.8628 50.8246 36.461V23.8051C50.8246 21.2187 48.7153 19.1094 46.1288 19.1094C43.5424 19.1094 41.4331 21.2187 41.4331 23.8051V33.1213C41.4582 33.5733 41.7344 34.0002 42.1362 34.176ZM43.8689 23.78C43.8689 22.5245 44.8984 21.4949 46.154 21.4949C47.4095 21.4949 48.439 22.5245 48.439 23.78V34.5275L43.8438 32.3428V23.78H43.8689Z" fill="#0A042E"/>
<path d="M73.4747 58.7595C72.9976 57.6044 72.0936 56.7004 70.9134 56.2233C68.5278 55.244 65.7656 56.3991 64.7863 58.7846L62.451 64.5099C62.2752 64.9117 62.3506 65.3888 62.6268 65.7403C62.8528 66.0165 63.2043 66.1672 63.5559 66.1672C63.6312 66.1672 63.7066 66.1672 63.807 66.1421L72.0434 64.4597C72.4451 64.3843 72.7716 64.1081 72.9223 63.7315L73.4998 62.3504C73.9518 61.1952 73.9518 59.9146 73.4747 58.7595ZM71.2649 61.4464L70.9385 62.2499L65.5145 63.3548L66.9961 59.7137C67.2221 59.1362 67.6741 58.7093 68.2265 58.4582C68.5027 58.3326 68.8041 58.2824 69.1054 58.2824C69.4067 58.2824 69.6829 58.3326 69.9843 58.4582C70.5618 58.6842 70.9887 59.1362 71.2398 59.6886C71.4909 60.2662 71.4909 60.8688 71.2649 61.4464Z" fill="#0A042E"/>
<path d="M4.69572 30.3842C7.00592 30.3842 8.88924 28.5008 8.88924 26.1906C8.88924 23.8804 7.00592 21.9971 4.69572 21.9971C2.38552 21.9971 0.502197 23.8804 0.502197 26.1906C0.502197 28.5008 2.38552 30.3842 4.69572 30.3842ZM4.69572 24.3827C5.70016 24.3827 6.5037 25.1862 6.5037 26.1906C6.5037 27.1951 5.70016 27.9986 4.69572 27.9986C3.69128 27.9986 2.88773 27.1951 2.88773 26.1906C2.88773 25.1862 3.69128 24.3827 4.69572 24.3827Z" fill="#0A042E"/>
<path d="M32.5187 36.7875L34.3769 38.4448L34.4522 66.1421C34.4522 66.795 34.9796 67.3475 35.6576 67.3475C36.3105 67.3475 36.8629 66.795 36.8629 66.1421L36.7876 37.9175C36.7876 37.591 36.6369 37.2646 36.3858 37.0386L33.3976 34.3517C32.9707 33.9499 32.3178 33.9499 31.8407 34.3015L28.4256 37.0135C28.1494 37.2395 27.9736 37.591 27.9736 37.9426V71.8674C27.9736 74.3283 29.9825 76.3121 32.4183 76.3121C34.8791 76.3121 36.8629 74.3032 36.8629 71.8674C36.8629 71.2145 36.3356 70.6621 35.6576 70.6621C34.9796 70.6621 34.4522 71.1894 34.4522 71.8674C34.4522 72.9974 33.5231 73.9265 32.3932 73.9265C31.2632 73.9265 30.3341 72.9974 30.3341 71.8674V38.5201L32.5187 36.7875Z" fill="#0A042E"/>
<path d="M32.4182 87.8882C31.012 87.8882 29.6058 87.7124 28.2498 87.3357C27.5969 87.1599 26.944 87.5366 26.7682 88.1895C26.5925 88.8173 26.9691 89.4953 27.622 89.671C29.1789 90.0979 30.786 90.2988 32.4182 90.2988C42.5881 90.2988 50.8496 82.0373 50.8496 71.8674V54.7418C50.8496 54.0889 50.3223 53.5364 49.6443 53.5364C48.9914 53.5364 48.4389 54.0638 48.4389 54.7418V71.8674C48.4389 80.6813 41.2572 87.8882 32.4182 87.8882Z" fill="#0A042E"/>
<path d="M22.8258 87.5868C23.0267 87.7124 23.2276 87.7626 23.4536 87.7626C23.8554 87.7626 24.2571 87.5617 24.4831 87.185C24.8347 86.6075 24.6589 85.8793 24.0814 85.5277C19.2601 82.5898 16.3723 77.4671 16.3723 71.8172C16.3723 71.1643 15.845 70.6118 15.167 70.6118C14.489 70.6118 13.9617 71.1392 13.9617 71.8172C13.9868 78.3209 17.3014 84.222 22.8258 87.5868Z" fill="#0A042E"/>
<path d="M15.1921 65.3888C15.845 65.3888 16.3975 64.8615 16.3975 64.1835V45.5009L20.9928 39.5497V71.8172C20.9928 78.12 26.1154 83.2678 32.4433 83.2678C38.7713 83.2678 43.8939 78.1451 43.8939 71.8172V40.9559L48.4892 43.1405V49.5438C48.4892 50.1967 49.0165 50.7491 49.6945 50.7491C50.3474 50.7491 50.8999 50.2218 50.8999 49.5438V42.3872C50.8999 41.9352 50.6236 41.5083 50.2219 41.3074L43.241 37.9928C42.8644 37.817 42.4375 37.8421 42.0859 38.0681C41.7344 38.2941 41.5335 38.6708 41.5335 39.0726V71.8423C41.5335 76.8394 37.4655 80.8822 32.4936 80.8822C27.4965 80.8822 23.4536 76.8143 23.4536 71.8423V36.0593C23.4536 35.557 23.1272 35.0799 22.6501 34.9293C22.173 34.7535 21.6205 34.9293 21.3192 35.331L14.3384 44.371C14.1877 44.5718 14.0873 44.8481 14.0873 45.0992V64.1835C13.9868 64.8615 14.5141 65.3888 15.1921 65.3888Z" fill="#0A042E"/>
<path d="M2.41065 71.8423V59.7137C2.41065 59.0608 1.88332 58.5084 1.20532 58.5084C0.527329 58.5084 0 59.0357 0 59.7137V71.8423C0 78.4465 1.98376 84.7995 5.70018 90.2235C5.92617 90.5499 6.30284 90.7508 6.6795 90.7508C6.9055 90.7508 7.15661 90.6755 7.3575 90.5499C7.90994 90.1733 8.03549 89.42 7.65883 88.8926C4.21863 83.8453 2.41065 77.9694 2.41065 71.8423Z" fill="#0A042E"/>
<path d="M69.0801 67.8497L60.467 69.9088C60.1406 69.9841 59.8393 70.2101 59.6886 70.5114L54.1391 81.0078C53.8378 81.5853 54.0638 82.3136 54.6413 82.64C55.2189 82.9413 55.9471 82.7153 56.2735 82.1378L61.5719 72.1185L67.0461 70.8128C63.9072 76.6385 58.6339 86.482 58.3326 87.0344C52.9589 96.1999 43.0401 101.875 32.4182 101.875C24.9853 101.875 17.8538 99.1379 12.3294 94.1659C11.8272 93.7139 11.0739 93.7641 10.647 94.2664C10.195 94.7686 10.2452 95.5219 10.7474 95.9488C16.6987 101.323 24.4078 104.26 32.4182 104.26C43.8687 104.26 54.5911 98.1083 60.3917 88.2397C60.8688 87.4362 70.0343 70.3105 70.4109 69.5823C70.6369 69.1554 70.5867 68.6532 70.3105 68.2766C70.0343 67.8999 69.5321 67.7241 69.0801 67.8497Z" fill="#0A042E"/>
<path d="M1.20532 55.7964C1.85821 55.7964 2.41065 55.2691 2.41065 54.5911V50.7491H7.00594V71.8423C7.00594 85.8542 18.4063 97.2797 32.4433 97.2797C39.9766 97.2797 47.083 93.965 51.9545 88.1644C52.3814 87.6622 52.306 86.9088 51.8038 86.482C51.3016 86.0551 50.5483 86.1304 50.1214 86.6326C45.727 91.8808 39.2986 94.8941 32.4684 94.8941C19.7623 94.8941 9.4417 84.5735 9.4417 71.8674V49.5689C9.4417 48.916 8.91437 48.3636 8.23638 48.3636H1.20532C0.878882 48.3636 0.577551 48.4891 0.351553 48.7151C0.125555 48.9411 0 49.2425 0 49.5689V54.6162C0 55.2691 0.527329 55.7964 1.20532 55.7964Z" fill="#0A042E"/>
<path d="M18.6825 17.2512C20.9927 17.2512 22.8761 15.3679 22.8761 13.0577C22.8761 10.7475 20.9927 8.86414 18.6825 8.86414C16.3723 8.86414 14.489 10.7475 14.489 13.0577C14.489 15.3679 16.3723 17.2512 18.6825 17.2512ZM18.6825 11.2497C19.687 11.2497 20.4905 12.0532 20.4905 13.0577C20.4905 14.0621 19.687 14.8656 18.6825 14.8656C17.6781 14.8656 16.8745 14.0621 16.8745 13.0577C16.8745 12.0532 17.6781 11.2497 18.6825 11.2497Z" fill="#0A042E"/>
<path d="M32.4433 8.38705C34.7535 8.38705 36.6368 6.50371 36.6368 4.19351C36.6368 1.88331 34.7535 0 32.4433 0C30.1331 0 28.2498 1.88331 28.2498 4.19351C28.2498 6.50371 30.1331 8.38705 32.4433 8.38705ZM32.4433 2.38554C33.4477 2.38554 34.2513 3.18907 34.2513 4.19351C34.2513 5.19795 33.4477 6.00151 32.4433 6.00151C31.4388 6.00151 30.6353 5.19795 30.6353 4.19351C30.6353 3.18907 31.464 2.38554 32.4433 2.38554Z" fill="#0A042E"/>
<path d="M46.154 15.8198C48.4642 15.8198 50.3475 13.9365 50.3475 11.6263C50.3475 9.31611 48.4642 7.4328 46.154 7.4328C43.8438 7.4328 41.9604 9.31611 41.9604 11.6263C41.9604 13.9365 43.8438 15.8198 46.154 15.8198ZM46.154 9.81834C47.1584 9.81834 47.962 10.6219 47.962 11.6263C47.962 12.6307 47.1584 13.4343 46.154 13.4343C45.1495 13.4343 44.346 12.6307 44.346 11.6263C44.346 10.6219 45.1746 9.81834 46.154 9.81834Z" fill="#0A042E"/>
</svg>
