<svg width="395" height="146" viewBox="0 0 395 146" fill="none" xmlns="http://www.w3.org/2000/svg">
<path d="M130.803 46.544C126.316 51.2055 124.073 57.2689 124.073 64.7693C124.073 72.2698 126.316 78.3332 130.803 82.9947C135.289 87.6562 141.142 89.9694 148.362 89.9694C155.442 89.9694 161.26 87.7263 165.781 83.205C165.991 82.9947 166.307 82.9947 166.482 83.205L168.901 85.4832C169.111 85.6935 169.111 86.0089 168.901 86.2192C163.608 91.5817 156.669 94.2804 148.117 94.2804C139.53 94.2804 132.555 91.5466 127.263 86.114C121.935 80.6464 119.271 73.5666 119.271 64.8044C119.271 56.0422 121.935 48.9273 127.263 43.4947C132.59 38.0271 139.53 35.3284 148.117 35.3284C156.563 35.3284 163.503 38.0271 168.901 43.3896C169.111 43.5999 169.111 43.9153 168.901 44.1256L166.482 46.4739C166.272 46.6842 165.956 46.6491 165.746 46.4739C161.26 41.9176 155.477 39.6394 148.327 39.6394C141.142 39.5693 135.289 41.8825 130.803 46.544Z" fill="#11265B"/>
<path d="M179.205 47.5954C178.679 47.0346 178.434 46.3687 178.364 45.5976C178.293 44.5462 178.714 43.5297 179.52 42.8288C180.081 42.303 180.782 42.0226 181.518 41.9876C182.569 41.9175 183.586 42.3381 184.287 43.1442C184.812 43.705 185.093 44.406 185.128 45.1771C185.198 46.2285 184.777 47.2449 183.971 47.9459C183.411 48.4716 182.71 48.752 181.974 48.7871C180.957 48.7871 179.906 48.3665 179.205 47.5954ZM179.52 93.1939V57.0235C179.52 56.7431 179.765 56.4978 180.046 56.4978H183.586C183.866 56.4978 184.112 56.7431 184.112 57.0235V93.1939C184.112 93.4743 183.866 93.7196 183.586 93.7196H180.046C179.765 93.6846 179.52 93.4743 179.52 93.1939Z" fill="#11265B"/>
<path d="M193.154 59.7925V57.0237C193.154 56.7433 193.4 56.4979 193.68 56.4979H197.605C197.886 56.4979 198.131 56.2526 198.131 55.9722V48.7171C198.131 48.4367 198.377 48.1914 198.657 48.1914H202.337C202.617 48.1914 202.863 48.4367 202.863 48.7171V55.9722C202.863 56.2526 203.108 56.4979 203.389 56.4979H213.202C213.483 56.4979 213.728 56.7433 213.728 57.0237V59.7925C213.728 60.0729 213.483 60.3183 213.202 60.3183H203.389C203.108 60.3183 202.863 60.5636 202.863 60.844V82.8897C202.863 85.0978 203.529 86.8852 204.861 88.2171C206.192 89.584 207.91 90.2499 210.083 90.2499C211.134 90.2499 212.116 90.0747 212.992 89.6891C213.342 89.549 213.693 89.7943 213.693 90.1448V93.0889C213.693 93.2992 213.553 93.5095 213.342 93.5796C211.94 94.0352 210.574 94.2805 209.312 94.2805C205.947 94.2805 203.248 93.2291 201.216 91.1261C199.183 89.0232 198.166 86.2894 198.166 82.8546V60.809C198.166 60.5286 197.921 60.2832 197.641 60.2832H193.715C193.4 60.3183 193.154 60.0729 193.154 59.7925Z" fill="#11265B"/>
<path d="M257.293 57.2338L231.077 114.083C231.007 114.258 230.797 114.363 230.621 114.363H226.731C226.345 114.363 226.1 113.978 226.275 113.627L236.124 93.9299C236.194 93.7897 236.194 93.6144 236.124 93.4742L219.511 57.2338C219.371 56.8833 219.616 56.4978 219.966 56.4978H223.962C224.172 56.4978 224.348 56.603 224.418 56.8133L237.946 87.2005C238.122 87.586 238.682 87.586 238.893 87.2005L252.422 56.8133C252.492 56.638 252.702 56.4978 252.877 56.4978H256.803C257.223 56.4978 257.469 56.8833 257.293 57.2338Z" fill="#11265B"/>
<path d="M294.41 42.1628L292.062 44.5111C291.852 44.7214 291.536 44.6863 291.326 44.5111C289.994 43.1442 288.242 41.9875 286.069 41.0763C283.685 40.0949 281.337 39.6042 278.954 39.6042C275.274 39.6042 272.505 40.6907 270.647 42.8637C268.79 45.0368 267.878 47.5252 267.878 50.3291C267.878 52.3269 268.404 54.0443 269.455 55.4813C270.507 56.9533 271.874 58.11 273.556 59.0213C275.239 59.9325 277.096 60.7737 279.129 61.5798C281.162 62.3859 283.23 63.2271 285.298 64.1384C287.365 65.0496 289.223 66.066 290.905 67.1526C292.588 68.2391 293.955 69.7461 295.006 71.6037C296.057 73.4613 296.583 75.6343 296.583 78.0527C296.583 82.3988 295.111 86.184 292.132 89.4085C289.153 92.633 284.842 94.2453 279.234 94.2453C272.365 94.2453 266.687 91.932 262.235 87.3406C262.06 87.1303 262.06 86.8149 262.235 86.6397L264.479 84.3965C264.689 84.1862 265.004 84.1862 265.215 84.3965C266.827 86.0789 268.79 87.4107 271.173 88.3921C273.731 89.4436 276.29 89.9693 278.813 89.9693C283.124 89.9693 286.349 88.7426 288.487 86.2541C290.625 83.7657 291.711 81.0669 291.711 78.1579C291.711 75.9498 291.01 74.0571 289.609 72.4799C288.207 70.9028 286.419 69.7111 284.281 68.8349C282.143 67.9937 279.83 67.0474 277.377 65.9959C274.923 64.9445 272.61 63.858 270.472 62.7715C268.334 61.6849 266.546 60.0727 265.144 57.9347C263.743 55.7967 263.042 53.3083 263.042 50.3642C263.042 46.1934 264.373 42.6184 267.002 39.6743C269.631 36.7302 273.521 35.2582 278.673 35.2582C285.052 35.2582 290.309 37.326 294.445 41.4268C294.585 41.637 294.585 41.9525 294.41 42.1628Z" fill="#11265B"/>
<path d="M310.567 88.9528C307.062 85.4129 305.31 80.7864 305.31 75.1085C305.31 69.4306 307.062 64.8042 310.567 61.2643C314.072 57.7244 318.629 55.9369 324.236 55.9369C329.914 55.9369 334.506 57.6893 338.011 61.2292C341.515 64.7692 343.268 69.3956 343.268 75.1085C343.268 80.8565 341.515 85.483 338.011 88.9879C334.506 92.5278 329.914 94.2802 324.236 94.2802C318.629 94.2802 314.072 92.4927 310.567 88.9528ZM313.932 64.2785C311.303 67.0474 309.972 70.6574 309.972 75.1085C309.972 79.5597 311.303 83.1698 313.932 85.9386C316.561 88.7075 320.031 90.0744 324.271 90.0744C328.512 90.0744 331.947 88.7075 334.611 85.9386C337.239 83.1698 338.571 79.5597 338.571 75.1085C338.571 70.6574 337.239 67.0474 334.611 64.2785C331.982 61.5097 328.512 60.1427 324.271 60.1427C320.031 60.1427 316.561 61.5097 313.932 64.2785Z" fill="#11265B"/>
<path d="M348.385 59.7926V57.0237C348.385 56.7433 348.631 56.498 348.911 56.498H353.362C353.643 56.498 353.888 56.2526 353.888 55.9723V42.9341C353.888 39.3592 354.939 36.4852 357.042 34.3472C359.145 32.2092 361.949 31.1227 365.489 31.1227C366.821 31.1227 368.188 31.368 369.59 31.8237C369.8 31.8938 369.94 32.1041 369.94 32.3143V35.2935C369.94 35.644 369.555 35.8893 369.239 35.7491C368.328 35.3636 367.277 35.1884 366.155 35.1884C363.912 35.1884 362.054 35.8893 360.652 37.3263C359.25 38.7633 358.549 40.6209 358.549 42.9341V55.9723C358.549 56.2526 358.795 56.498 359.075 56.498H369.45C369.73 56.498 369.975 56.7433 369.975 57.0237V59.7926C369.975 60.073 369.73 60.3183 369.45 60.3183H359.075C358.795 60.3183 358.549 60.5637 358.549 60.844V93.2291C358.549 93.5095 358.304 93.7548 358.024 93.7548H354.344C354.063 93.7548 353.818 93.5095 353.818 93.2291V60.844C353.818 60.5637 353.572 60.3183 353.292 60.3183H348.841C348.631 60.3183 348.385 60.073 348.385 59.7926Z" fill="#11265B"/>
<path d="M374.427 59.7925V57.0237C374.427 56.7433 374.672 56.4979 374.952 56.4979H378.878C379.158 56.4979 379.404 56.2526 379.404 55.9722V48.7171C379.404 48.4367 379.649 48.1914 379.929 48.1914H383.61C383.89 48.1914 384.135 48.4367 384.135 48.7171V55.9722C384.135 56.2526 384.381 56.4979 384.661 56.4979H394.475C394.755 56.4979 395 56.7433 395 57.0237V59.7925C395 60.0729 394.755 60.3183 394.475 60.3183H384.661C384.381 60.3183 384.135 60.5636 384.135 60.844V82.8897C384.135 85.0978 384.801 86.8852 386.133 88.2171C387.465 89.584 389.182 90.2499 391.355 90.2499C392.407 90.2499 393.388 90.0747 394.264 89.6891C394.615 89.549 394.965 89.7943 394.965 90.1448V93.0889C394.965 93.2992 394.825 93.5095 394.615 93.5796C393.213 94.0352 391.846 94.2805 390.584 94.2805C387.22 94.2805 384.521 93.2291 382.488 91.1261C380.455 89.0232 379.439 86.2894 379.439 82.8546V60.809C379.439 60.5286 379.193 60.2832 378.913 60.2832H374.988C374.672 60.3183 374.427 60.0729 374.427 59.7925Z" fill="#11265B"/>
<path d="M1.68234 63.2632H11.4259C12.3372 63.2632 13.1082 62.5272 13.1082 61.5809V54.7814C13.1082 51.1714 10.1641 48.2273 6.55412 48.2273C2.9441 48.2273 0 51.1714 0 54.7814V61.5809C0 62.5272 0.736024 63.2632 1.68234 63.2632ZM3.36468 54.8165C3.36468 53.064 4.80168 51.627 6.55412 51.627C8.30656 51.627 9.74356 53.064 9.74356 54.8165V59.9336H3.36468V54.8165Z" fill="#11265B"/>
<path d="M39.5704 44.9676C39.8158 45.1078 40.0962 45.1429 40.3415 45.1429C40.657 45.1429 41.0074 45.0378 41.2878 44.8625L45.2133 42.1637L49.1388 44.8625C49.6645 45.213 50.3304 45.248 50.8561 44.9676C51.4169 44.6872 51.7674 44.0914 51.7674 43.4956V22.221C51.7674 18.611 48.8233 15.6669 45.2133 15.6669C41.6033 15.6669 38.6592 18.611 38.6592 22.221V43.4956C38.6942 44.1265 39.0447 44.6872 39.5704 44.9676ZM42.0239 22.221C42.0239 20.4686 43.4609 19.0315 45.2133 19.0315C46.9657 19.0315 48.4027 20.4686 48.4027 22.221V40.3062L46.1596 38.764C45.5988 38.3785 44.8278 38.3785 44.267 38.764L42.0239 40.3062V22.221Z" fill="#11265B"/>
<path d="M20.6439 52.3981C20.8192 52.4682 20.9944 52.5033 21.1696 52.5033C21.6954 52.5033 22.1861 52.258 22.5015 51.8374L32.2451 39.0095C32.4553 38.7291 32.5955 38.3786 32.5955 37.9931V33.6821C32.5955 30.0721 29.6514 27.128 26.0414 27.128C22.4314 27.128 19.4873 30.0721 19.4873 33.6821V50.8209C19.5224 51.5219 19.978 52.1528 20.6439 52.3981ZM22.852 33.6821C22.852 31.9297 24.289 30.4927 26.0414 30.4927C27.7939 30.4927 29.2309 31.9297 29.2309 33.6821V37.4323L22.8169 45.844V33.6821H22.852Z" fill="#11265B"/>
<path d="M58.8119 47.7013L68.5555 52.3628C68.8008 52.468 69.0462 52.5381 69.2915 52.5381C69.6069 52.5381 69.9224 52.4679 70.1677 52.2927C70.6584 51.9773 70.9388 51.4515 70.9388 50.8907V33.2262C70.9388 29.6161 67.9947 26.6721 64.3847 26.6721C60.7747 26.6721 57.8306 29.6161 57.8306 33.2262V46.2293C57.8656 46.8602 58.2512 47.456 58.8119 47.7013ZM61.2303 33.1911C61.2303 31.4387 62.6673 30.0017 64.4197 30.0017C66.1722 30.0017 67.6092 31.4387 67.6092 33.1911V48.192L61.1952 45.1427V33.1911H61.2303Z" fill="#11265B"/>
<path d="M102.553 82.0141C101.887 80.4018 100.625 79.1401 98.9781 78.4741C95.6484 77.1072 91.7931 78.7195 90.4262 82.0491L87.1666 90.0402C86.9213 90.601 87.0265 91.2669 87.412 91.7576C87.7274 92.1431 88.2181 92.3535 88.7088 92.3535C88.8139 92.3535 88.9191 92.3535 89.0593 92.3184L100.555 89.9701C101.116 89.865 101.572 89.4794 101.782 88.9537L102.588 87.026C103.219 85.4138 103.219 83.6263 102.553 82.0141ZM99.4688 85.7643L99.0131 86.8859L91.4426 88.428L93.5105 83.3459C93.8259 82.5398 94.4568 81.9439 95.2279 81.5935C95.6134 81.4182 96.034 81.3481 96.4546 81.3481C96.8752 81.3481 97.2607 81.4182 97.6813 81.5935C98.4874 81.9089 99.0832 82.5398 99.4337 83.3109C99.7842 84.117 99.7842 84.9581 99.4688 85.7643Z" fill="#11265B"/>
<path d="M6.55432 42.4089C9.7788 42.4089 12.4075 39.7802 12.4075 36.5557C12.4075 33.3312 9.7788 30.7026 6.55432 30.7026C3.32983 30.7026 0.701172 33.3312 0.701172 36.5557C0.701172 39.7802 3.32983 42.4089 6.55432 42.4089ZM6.55432 34.0322C7.95627 34.0322 9.07783 35.1538 9.07783 36.5557C9.07783 37.9577 7.95627 39.0792 6.55432 39.0792C5.15236 39.0792 4.0308 37.9577 4.0308 36.5557C4.0308 35.1538 5.15236 34.0322 6.55432 34.0322Z" fill="#11265B"/>
<path d="M45.3883 51.3466L47.9819 53.6598L48.087 92.3186C48.087 93.2299 48.823 94.001 49.7694 94.001C50.6806 94.001 51.4517 93.2299 51.4517 92.3186L51.3465 52.9238C51.3465 52.4682 51.1363 52.0125 50.7858 51.6971L46.615 47.9469C46.0191 47.3861 45.1079 47.3861 44.4419 47.8768L39.6753 51.6621C39.2898 51.9775 39.0444 52.4682 39.0444 52.9589V100.31C39.0444 103.745 41.8483 106.513 45.2481 106.513C48.6828 106.513 51.4517 103.709 51.4517 100.31C51.4517 99.3985 50.7157 98.6274 49.7694 98.6274C48.823 98.6274 48.087 99.3634 48.087 100.31C48.087 101.887 46.7902 103.184 45.213 103.184C43.6358 103.184 42.339 101.887 42.339 100.31V53.765L45.3883 51.3466Z" fill="#11265B"/>
<path d="M45.2479 122.671C43.2852 122.671 41.3225 122.426 39.4298 121.9C38.5186 121.655 37.6073 122.18 37.362 123.092C37.1166 123.968 37.6423 124.914 38.5536 125.159C40.7266 125.755 42.9698 126.036 45.2479 126.036C59.4427 126.036 70.9737 114.505 70.9737 100.31V76.4066C70.9737 75.4953 70.2377 74.7242 69.2914 74.7242C68.3801 74.7242 67.609 75.4603 67.609 76.4066V100.31C67.609 112.612 57.5851 122.671 45.2479 122.671Z" fill="#11265B"/>
<path d="M31.8595 122.25C32.1399 122.425 32.4203 122.495 32.7357 122.495C33.2965 122.495 33.8573 122.215 34.1727 121.689C34.6634 120.883 34.4181 119.867 33.612 119.376C26.8826 115.275 22.852 108.125 22.852 100.239C22.852 99.3281 22.116 98.557 21.1696 98.557C20.2233 98.557 19.4873 99.293 19.4873 100.239C19.5224 109.317 24.1488 117.553 31.8595 122.25Z" fill="#11265B"/>
<path d="M21.2043 91.2671C22.1156 91.2671 22.8867 90.531 22.8867 89.5847V63.5084L29.3006 55.2019V100.24C29.3006 109.037 36.4506 116.222 45.2828 116.222C54.1151 116.222 61.2651 109.072 61.2651 100.24V57.1646L67.679 60.2138V69.1513C67.679 70.0625 68.415 70.8336 69.3613 70.8336C70.2726 70.8336 71.0437 70.0976 71.0437 69.1513V59.1624C71.0437 58.5315 70.6582 57.9357 70.0974 57.6553L60.3538 53.0288C59.8281 52.7835 59.2323 52.8186 58.7416 53.134C58.2509 53.4494 57.9705 53.9752 57.9705 54.5359V100.275C57.9705 107.249 52.2926 112.892 45.3529 112.892C38.3782 112.892 32.7354 107.214 32.7354 100.275V50.3301C32.7354 49.6291 32.2798 48.9632 31.6138 48.7529C30.9479 48.5076 30.1768 48.7529 29.7562 49.3137L20.0127 61.9312C19.8024 62.2116 19.6622 62.5972 19.6622 62.9477V89.5847C19.522 90.531 20.258 91.2671 21.2043 91.2671Z" fill="#11265B"/>
<path d="M3.36468 100.274V83.3458C3.36468 82.4345 2.62866 81.6635 1.68234 81.6635C0.736024 81.6635 0 82.3995 0 83.3458V100.274C0 109.492 2.76885 118.359 7.95607 125.93C8.27151 126.386 8.79724 126.666 9.32297 126.666C9.63841 126.666 9.9889 126.561 10.2693 126.386C11.0404 125.86 11.2156 124.808 10.6899 124.072C5.88819 117.028 3.36468 108.826 3.36468 100.274Z" fill="#11265B"/>
<path d="M96.4191 94.7019L84.3974 97.5759C83.9418 97.681 83.5212 97.9964 83.3109 98.417L75.5651 113.067C75.1446 113.874 75.46 114.89 76.2661 115.346C77.0722 115.766 78.0886 115.451 78.5443 114.645L85.9396 100.66L93.5802 98.8376C89.1991 106.969 81.8389 120.708 81.4183 121.479C73.9178 134.272 60.0736 142.193 45.248 142.193C34.8735 142.193 24.9197 138.373 17.2089 131.433C16.508 130.802 15.4565 130.872 14.8607 131.573C14.2298 132.274 14.2999 133.326 15.0009 133.921C23.3074 141.422 34.0674 145.523 45.248 145.523C61.2302 145.523 76.196 136.936 84.2923 123.161C84.9582 122.04 97.751 98.1366 98.2767 97.1202C98.5922 96.5244 98.5221 95.8234 98.1365 95.2977C97.751 94.772 97.05 94.5266 96.4191 94.7019Z" fill="#11265B"/>
<path d="M1.68234 77.8786C2.59361 77.8786 3.36468 77.1426 3.36468 76.1963V70.8338H9.7786V100.275C9.7786 119.832 25.6907 135.779 45.283 135.779C55.7976 135.779 65.7164 131.153 72.5159 123.056C73.1117 122.355 73.0066 121.304 72.3056 120.708C71.6046 120.112 70.5532 120.218 69.9573 120.918C63.8238 128.244 54.8513 132.45 45.3181 132.45C27.5834 132.45 13.1783 118.044 13.1783 100.31V69.1865C13.1783 68.2752 12.4423 67.5042 11.496 67.5042H1.68234C1.22671 67.5042 0.806122 67.6794 0.490683 67.9948C0.175244 68.3103 0 68.7309 0 69.1865V76.2313C0 77.1426 0.736024 77.8786 1.68234 77.8786Z" fill="#11265B"/>
<path d="M26.0763 24.0787C29.3008 24.0787 31.9294 21.45 31.9294 18.2255C31.9294 15.0011 29.3008 12.3724 26.0763 12.3724C22.8518 12.3724 20.2231 15.0011 20.2231 18.2255C20.2231 21.45 22.8518 24.0787 26.0763 24.0787ZM26.0763 15.702C27.4782 15.702 28.5998 16.8236 28.5998 18.2255C28.5998 19.6275 27.4782 20.749 26.0763 20.749C24.6743 20.749 23.5528 19.6275 23.5528 18.2255C23.5528 16.8236 24.6743 15.702 26.0763 15.702Z" fill="#11265B"/>
<path d="M45.2828 11.7063C48.5073 11.7063 51.136 9.07761 51.136 5.85313C51.136 2.62864 48.5073 0 45.2828 0C42.0583 0 39.4297 2.62864 39.4297 5.85313C39.4297 9.07761 42.0583 11.7063 45.2828 11.7063ZM45.2828 3.32963C46.6848 3.32963 47.8063 4.45118 47.8063 5.85313C47.8063 7.25508 46.6848 8.37666 45.2828 8.37666C43.8809 8.37666 42.7593 7.25508 42.7593 5.85313C42.7593 4.45118 43.9159 3.32963 45.2828 3.32963Z" fill="#11265B"/>
<path d="M64.42 22.0804C67.6445 22.0804 70.2732 19.4518 70.2732 16.2273C70.2732 13.0028 67.6445 10.3741 64.42 10.3741C61.1956 10.3741 58.5669 13.0028 58.5669 16.2273C58.5669 19.4518 61.1956 22.0804 64.42 22.0804ZM64.42 13.7038C65.822 13.7038 66.9435 14.8253 66.9435 16.2273C66.9435 17.6292 65.822 18.7508 64.42 18.7508C63.0181 18.7508 61.8965 17.6292 61.8965 16.2273C61.8965 14.8253 63.0531 13.7038 64.42 13.7038Z" fill="#11265B"/>
</svg>
